<?xml version="1.0" encoding="utf-8"?>
<!-- Generator: Adobe Illustrator 26.0.3, SVG Export Plug-In . SVG Version: 6.00 Build 0)  -->
<svg version="1.1" id="Calque_1" xmlns="http://www.w3.org/2000/svg" xmlns:xlink="http://www.w3.org/1999/xlink" x="0px" y="0px"
	 viewBox="0 0 29.1 27.7" style="enable-background:new 0 0 29.1 27.7;" xml:space="preserve">
<g>
	<g>
		<path d="M0,13.8c0,0.4,0.2,0.8,0.5,1.1l9.5,8.6c0,0,0,0,0,0v0l0,0v0c2.7,2.7,6.2,4.1,9.8,4.1v0l0,0c3.1,0,6.3-1.1,8.8-3.2
			c0.7-0.6,0.6-1.3-0.1-1.9l-3.5-3.5c-0.5-0.5-1.4-0.5-1.9-0.1v0c-1,0.7-2.2,1-3.4,1l0,0v0c-1.6,0-3.2-0.6-4.4-1.8l0,0
			c-1.2-1.2-1.8-2.8-1.8-4.4l0,0h0c0-1.6,0.6-3.2,1.8-4.4c1.2-1.2,2.8-1.8,4.4-1.8l0,0v0c1.2,0,2.3,0.3,3.4,1v0
			c0.6,0.4,1.4,0.4,1.9-0.1l3.5-3.5c0.6-0.6,0.7-1.4,0.1-1.9C26.1,1.1,22.9,0,19.8,0v0l0,0c-3.5,0-7.1,1.4-9.8,4.1l-9.5,8.6
			C0.2,13,0,13.4,0,13.8L0,13.8z"/>
	</g>
</g>
</svg>
