<?xml version="1.0" standalone="no"?>
<!DOCTYPE svg PUBLIC "-//W3C//DTD SVG 1.1//EN" "http://www.w3.org/Graphics/SVG/1.1/DTD/svg11.dtd" >
<svg xmlns="http://www.w3.org/2000/svg">
<metadata>Generated by IcoMoon</metadata>
<defs>
<font id="icomoon" horiz-adv-x="1024">
<font-face units-per-em="1024" ascent="960" descent="-64" />
<missing-glyph horiz-adv-x="1024" />
<glyph unicode="&#x20;" horiz-adv-x="512" d="" />
<glyph unicode="&#xe900;" glyph-name="administration" d="M746.155-11.605l-275.627 275.456c-9.045 9.045-15.872 19.797-20.309 31.403v0c-11.093 3.925-21.504 10.24-29.696 18.773v0l-24.235 23.893c-14.677 14.848-22.869 35.157-22.699 55.808v0c0 3.072 0.171 7.168 0.683 10.752v0c0.853 6.827 2.56 13.312 4.949 19.456v0l-167.595 167.595-52.395 16.043c-16.043 4.608-29.013 14.507-38.571 27.477v0l-85.845 119.808c-9.216 12.8-13.653 27.648-13.653 42.496v0c0 18.773 7.168 37.547 21.333 51.883v0l63.147 63.147c14.165 13.824 32.768 21.163 51.712 21.163v0c15.019 0 30.037-4.608 42.837-13.824v0l119.808-86.016c12.629-9.216 22.528-22.187 27.307-38.059v0l13.483-44.203 171.861-172.032c10.923 5.12 22.869 7.851 34.816 7.851v0c20.992 0 41.813-8.363 56.832-23.552v0l21.845-22.016c9.216-8.875 15.872-19.797 19.627-31.232v0c11.605-4.437 22.357-11.264 31.061-20.309v0l275.627-275.285c17.579-17.579 26.453-41.131 26.283-64.171v0c0-26.283-10.923-52.224-30.72-72.363v0l-85.504-85.504c-19.285-19.285-45.227-30.549-72.363-30.549v0 58.368c10.581 0 22.187 4.608 31.061 13.653v0l85.333 85.333c9.557 9.728 13.824 21.163 13.824 31.061v0c-0.171 9.045-3.072 16.725-9.216 23.040v0l-275.627 275.456c-4.779 4.779-10.752 7.68-18.091 8.704v0c-14.165 1.707-25.088 13.312-25.771 27.648v0c-0.341 5.973-2.389 10.752-6.485 14.848v0l-22.357 22.357c-4.267 4.096-8.875 6.144-15.36 6.315v0c-5.291 0.171-11.093-2.048-17.237-6.997v0c0-0.171-0.341-0.341-2.56-2.048v0c-11.605-9.899-28.843-9.216-39.595 1.536v0l-194.048 193.877-7.339 12.117-15.531 51.371c-0.853 2.56-2.901 5.632-5.632 7.509v0l-119.637 85.845c-2.901 2.048-5.973 2.901-8.875 2.901v0c-3.755 0-7.68-1.536-10.581-4.267v0l-62.805-62.976c-2.731-2.731-4.267-6.656-4.267-10.581v0c0-3.072 0.853-5.973 2.731-8.533v0l85.675-119.296c2.389-3.243 5.461-5.12 8.192-5.973v0l59.904-18.432 12.117-7.168 188.416-188.757c10.752-10.752 11.264-27.648 1.707-39.253v0c-3.243-3.925-5.291-8.704-5.973-14.507v0c0 0-0.171-0.171-0.171-1.707v0c0.171-5.973 2.048-10.581 5.803-14.677v0l24.064-23.723c4.096-3.925 8.192-5.803 13.483-6.144v0c14.165-0.683 25.941-11.605 27.648-25.771v0c0.853-6.827 3.755-13.141 8.875-18.432v0l275.456-275.115c5.973-5.973 13.653-9.045 22.869-9.216v0-58.368c-0.171 0-0.171 0-0.341 0v0c-23.723 0-46.763 9.387-63.659 26.112v0zM272.555-12.971c-22.016 0-44.544 4.779-67.413 13.995v0l-5.973 2.56c-3.072 0.853-6.485 2.048-10.069 3.755v0c-8.533 4.096-14.677 12.117-16.213 21.333v0c-1.707 9.387 1.365 18.944 8.192 25.771v0l80.725 80.555-28.331 28.501-79.872-79.872c-8.363-8.192-20.821-10.923-31.573-6.315v0l-14.677 5.973c-7.509 2.901-13.312 8.875-16.213 16.213v0c-8.533 21.333-12.629 43.52-12.629 65.195v0c0 43.52 16.384 86.016 47.957 117.419v0c31.232 31.232 73.387 47.957 117.077 47.787v0c6.997 0 13.995-0.512 20.821-1.365v0c8.363 8.363 22.528 22.699 45.909 46.080v0l79.872 79.701c11.435 11.435 29.867 11.435 41.301 0v0l4.949-4.949c10.752-10.581 11.605-27.819 1.707-39.424v0c-3.243-3.925-5.461-8.704-5.973-14.507v0c0 0-0.171-0.171-0.171-1.707v0c0.171-5.973 1.877-10.581 5.803-14.507v0l24.064-23.723c4.096-3.925 8.192-5.803 13.483-5.973v0c14.165-0.683 25.941-11.605 27.648-25.771v0c0.853-6.997 3.755-13.141 8.875-18.261v0l3.755-3.755c5.461-5.461 8.704-12.971 8.704-20.651v0c0-7.851-3.243-15.189-8.704-20.821v0c-40.277-40.277-73.728-73.557-89.941-89.771v0c0.683-6.144 1.024-12.288 1.024-18.432v0c0-45.568-18.773-88.405-50.347-120.149v0c-28.501-28.672-64.853-44.544-102.741-44.544v0c-0.341-0.341-0.683-0.341-1.024-0.341v0zM272.555 45.397c23.381 0.341 42.496 7.851 62.464 27.307v0c20.821 21.163 33.28 49.664 33.28 78.848v0c0 7.509-0.853 15.019-2.389 22.528v0c-2.048 9.728 0.853 19.797 8.021 26.795v0c0.853 0.853 34.987 34.987 82.091 81.92v0c-2.219 3.925-4.267 8.021-5.803 12.288v0c-11.093 3.925-21.504 10.24-29.696 18.773v0l-24.235 23.893c-6.997 6.997-12.459 15.189-16.213 24.064v0l-28.672-28.672c-44.373-44.203-54.613-54.784-57.173-57.173v0c-6.997-6.485-16.555-9.216-25.771-7.339v0c-8.875 1.707-17.237 2.731-25.088 2.731v0c-29.013 0-55.808-10.752-75.776-30.72v0c-19.968-19.968-30.891-47.275-30.891-76.117v0c0-4.779 0.341-9.557 0.853-14.336v0l58.88 58.88c7.68 6.485 14.848 17.92 39.253 19.968v0c0.171 0 0.512 0 0.683 0v0c1.365 0 3.925 0 8.875-1.195v0c6.144-1.536 11.435-4.949 15.36-9.557v0l47.275-47.104c10.069-10.24 15.189-23.552 15.189-36.693v0c0-12.8-4.779-25.6-14.677-36.011v0l-52.053-52.053c5.461-0.512 11.093-1.024 16.213-1.024v0zM659.797 444.757l-4.437 4.267c-4.779 4.949-10.752 7.851-18.091 8.704v0c-14.165 1.707-25.088 13.312-25.771 27.648v0c-0.341 5.973-2.389 10.752-6.485 14.848v0l-22.187 22.357c-4.267 4.096-9.045 6.144-15.36 6.315v0c-5.461 0-11.093-2.048-17.237-6.997v0c0 0-0.341-0.171-2.389-2.048v0c-11.605-9.899-29.013-9.216-39.765 1.536v0l-4.949 4.949c-11.435 11.435-11.435 29.867 0 41.301v0c54.955 54.955 103.253 103.253 123.563 123.733v0c-0.853 7.168-1.365 14.336-1.365 21.333v0c0 43.52 16.725 85.504 47.957 116.736v0c31.403 31.232 73.899 47.957 117.419 47.957v0c21.845 0 43.861-4.267 65.195-12.629v0l13.653-5.461c9.045-3.755 15.872-11.776 17.749-21.504v0c1.877-9.728-1.195-19.797-8.363-26.624v0l-82.432-80.043 30.379-30.549 74.069 74.069c6.997 6.997 17.067 9.899 26.624 7.851v0c2.389-0.512 4.779-1.365 6.997-2.389v0l3.243-0.683c9.728-2.048 17.749-8.875 21.333-18.091v0c8.192-20.992 12.288-43.008 12.288-64.853v0c0-43.349-16.384-86.016-47.957-117.248v0c-31.573-31.915-75.093-51.371-121.173-51.371v0c-5.803 0-11.605 0.341-17.579 1.024v0c-15.531-15.36-46.592-46.421-84.139-83.968v0c-5.632-5.632-13.141-8.533-20.651-8.533v0c-6.997 0-14.507 2.731-20.139 8.363v0zM678.229 504.661c44.032 43.861 75.093 74.923 76.459 76.288v0c6.997 6.997 17.237 9.899 26.795 7.68v0c7.168-1.536 14.336-2.389 21.163-2.389v0c29.355 0 58.709 12.8 79.872 34.133v0c19.968 19.968 30.72 47.275 30.72 76.117v0c0 2.389-0.171 4.779-0.171 7.168v0l-56.832-56.832c-4.096-3.925-8.875-7.339-14.848-9.899v0l-7.339-2.048-1.024-0.171-4.096-0.341c-16.896 0.341-26.795 8.704-33.963 15.36v0l-50.347 50.347c-7.68 7.339-12.971 18.944-12.8 30.037v0c0.171 15.189 7.509 25.941 15.019 33.451v0l55.979 54.272c-3.925 0.341-7.851 0.683-11.776 0.683v0c-29.013-0.171-56.149-10.923-76.288-30.72v0c-19.797-20.139-30.72-46.592-30.72-75.435v0c0-8.363 0.853-16.555 2.731-24.747v0c2.219-9.728-0.683-19.797-7.509-26.795v0c-1.536-1.707-34.133-34.304-80.043-80.043v0c9.216-3.925 17.92-9.728 25.088-17.067v0l22.016-22.016c9.216-8.875 15.701-19.797 19.627-31.232v0c4.267-1.536 8.363-3.584 12.288-5.803v0z" />
<glyph unicode="&#xe901;" glyph-name="clock-speed" d="M453.936 449.936c0-35.040 28.432-63.456 63.456-63.456 24.608 0 45.696 14.144 56.224 34.608l0.176-0.16 115.84 208.992-203.36-124.704 0.192-0.192c-19.312-10.896-32.528-31.344-32.528-55.088zM773.040 752.304c-65.024 56.832-149.040 93.12-245.040 98.544v-96.432c80-5.088 127.136-30.496 174.464-70.144l70.576 68.032zM818.336 480h96.32c-6.464 96-44.016 174.88-102.32 239.52l-68.144-67.728c41.056-47.040 68.064-107.792 74.144-171.792zM818.784 432c-10.192-160-142.752-286.896-304.672-286.896-168.56 0-310.736 136.704-310.736 305.248 0 160.448 132.624 291.728 276.624 304.048v96.432c-208-12.464-372.624-187.472-372.624-400.896 0-221.488 182.72-400.832 404.208-400.832 214.912 0 393.44 174.896 403.696 382.896h-96.496z" />
<glyph unicode="&#xe902;" glyph-name="configuration" d="M469.675-47.957c-28.331 0.171-50.688 23.040-50.859 50.859v0 88.917c-32.256 8.363-63.147 21.163-92.843 38.4v0l-63.147-63.317c-10.069-9.387-23.040-13.995-35.499-13.995v0c-12.629 0-25.771 4.608-36.011 14.677v0l-59.733 59.563c-9.728 9.387-15.36 22.699-15.36 36.181v0c-0.171 13.483 5.632 26.965 15.019 36.011v0l62.635 62.976c-17.067 28.843-29.867 59.904-38.741 92.843v0h-88.235c-27.819 0.171-50.859 22.869-50.859 50.859v0 84.651c-0.171 13.824 5.973 26.965 14.848 36.011v0c9.387 9.557 22.699 15.189 36.011 15.019v0h88.747c8.533 32.768 21.675 64.341 38.571 92.672v0l-62.464 62.635c-10.24 9.728-15.531 23.211-15.531 36.352v0c0 12.971 5.291 26.624 15.189 35.84v0l59.563 59.904c10.24 10.411 23.552 15.019 36.181 15.019v0c12.629 0 25.6-4.608 36.181-14.848v0l62.293-62.805c29.355 17.067 60.416 29.867 93.013 38.571v0 88.747c0.171 28.16 22.699 50.688 50.859 50.688v0h84.651c28.16 0 50.859-22.699 50.859-50.688v0-88.576c32.597-8.533 63.829-21.333 93.013-38.4v0l62.464 62.464c10.24 10.411 23.552 14.848 36.181 14.848v0c12.629 0 25.6-4.608 36.181-14.848v0l59.051-59.392c10.24-9.899 15.531-22.699 15.531-36.523v0c0-13.653-5.461-26.624-15.189-35.84v0l-62.635-62.635c17.237-29.013 30.208-60.416 38.741-93.013v0h88.747c28.16 0 50.517-23.381 50.688-51.029v0-84.651c0.171-12.8-5.12-26.795-14.507-35.499v0c-9.557-9.899-22.869-15.36-36.181-15.36v0h-88.747c-8.533-32.597-21.504-63.659-38.741-93.013v0l62.635-62.635c9.899-9.899 15.019-22.869 15.019-36.011v0c0-12.971-5.12-26.283-14.848-35.84v0l-60.245-60.416c-10.069-9.728-23.040-14.336-35.669-14.336v0c-12.629 0-25.6 4.608-36.011 14.677v0l-62.464 62.293c-29.184-17.067-60.587-30.208-92.843-38.4v0-88.747c0-27.819-22.528-50.859-50.859-50.859v0h-84.651zM545.792 11.264v86.869c0 24.064 16.725 44.032 39.253 49.664v0c30.891 7.168 60.587 19.627 87.893 36.352v0c8.192 4.949 17.237 7.509 26.453 7.509v0c13.312 0 26.624-5.461 35.84-15.189v0l61.44-61.269 47.957 48.128-61.781 61.781c-9.557 9.899-14.507 22.528-14.507 35.669v0c0 8.704 2.219 18.261 7.509 26.624v0c16.896 27.477 29.184 57.003 36.693 88.064v0c5.632 22.699 25.6 38.912 49.493 39.083v0h86.528v67.584h-86.528c-23.381 0-44.032 16.043-49.493 39.083v0c-7.509 30.891-19.797 60.587-36.864 88.235v0c-4.779 8.192-7.339 17.237-7.339 26.283v0c0 12.459 4.437 25.771 14.677 36.181v0l61.44 61.269-47.787 48.128-60.757-60.928c-9.899-10.411-23.211-15.531-36.181-15.531v0c-9.387 0-18.603 2.56-26.965 7.68v0c-26.965 16.555-56.832 28.672-87.552 36.181v0c-23.381 5.461-39.424 25.771-39.424 49.493v0 86.699h-67.755v-86.699c-0.341-23.893-16.213-43.861-38.912-49.323v0c-31.061-7.68-60.757-19.797-88.747-36.864v0c-8.192-4.779-17.237-7.168-26.283-7.168v0c-12.971 0-26.112 4.949-35.84 15.019v0l-61.099 61.44-47.957-47.957 61.44-61.44c10.069-10.069 14.848-23.381 14.848-36.011v0c0-9.216-2.56-17.92-7.509-26.795v0c-16.725-27.136-29.184-57.003-36.523-88.064v0c-5.12-22.357-26.112-39.083-49.493-38.741v0h-86.699v-67.755h86.528c23.552 0.171 44.715-16.725 49.152-38.912v0c7.851-30.891 20.139-60.757 37.035-88.064v0c4.949-8.363 7.339-17.408 7.339-26.453v0c0-13.312-5.291-26.283-14.848-35.84v0l-61.44-61.611 47.957-48.128 61.099 61.099c9.387 9.899 23.552 15.531 36.181 15.36v0 0c8.533 0 18.261-2.048 26.453-7.509v0c27.648-16.725 57.173-29.184 88.576-36.693v0c21.675-5.632 38.4-25.259 38.571-49.493v0-86.869h67.925v-0.171zM312.491 448.171c0.171 110.251 89.6 199.339 199.339 199.339v0-59.392c-76.971-0.171-139.776-62.805-139.947-139.947v0c0.171-76.971 63.147-139.776 139.947-139.947v0c77.141 0.171 139.776 62.805 139.947 139.947v0c-0.171 77.312-62.635 139.947-139.947 139.947v0 59.392c110.080 0 199.339-89.259 199.339-199.339v0c0-109.909-89.259-199.168-199.339-199.339v0c-109.739 0.171-199.168 89.429-199.339 199.339v0z" />
<glyph unicode="&#xe903;" glyph-name="database" d="M512 521.143q135.429 0 253.143 24.571t185.714 72.571v-97.143q0-39.429-58.857-73.143t-160-53.429-220-19.714-220 19.714-160 53.429-58.857 73.143v97.143q68-48 185.714-72.571t253.143-24.571zM512 82.286q135.429 0 253.143 24.571t185.714 72.571v-97.143q0-39.429-58.857-73.143t-160-53.429-220-19.714-220 19.714-160 53.429-58.857 73.143v97.143q68-48 185.714-72.571t253.143-24.571zM512 301.714q135.429 0 253.143 24.571t185.714 72.571v-97.143q0-39.429-58.857-73.143t-160-53.429-220-19.714-220 19.714-160 53.429-58.857 73.143v97.143q68-48 185.714-72.571t253.143-24.571zM512 960q118.857 0 220-19.714t160-53.429 58.857-73.143v-73.143q0-39.429-58.857-73.143t-160-53.429-220-19.714-220 19.714-160 53.429-58.857 73.143v73.143q0 39.429 58.857 73.143t160 53.429 220 19.714z" />
<glyph unicode="&#xe904;" glyph-name="home" d="M896-64h-298.667v277.333h-170.667v-277.333h-298.667v448c0 11.776 9.536 21.333 21.333 21.333s21.333-9.557 21.333-21.333v-405.333h213.333v277.333h256v-277.333h213.333v384c0 11.776 9.536 21.333 21.333 21.333s21.333-9.557 21.333-21.333v-426.667zM1002.667 384c-5.312 0-10.603 1.963-14.741 5.909l-475.925 455.232-475.925-455.232c-8.512-8.128-22.016-7.851-30.165 0.661s-7.829 22.016 0.661 30.165l505.429 483.456 505.408-483.435c8.491-8.149 8.811-21.653 0.661-30.165-4.181-4.373-9.771-6.592-15.403-6.592zM832 640c-11.797 0-21.333 9.557-21.333 21.333v128h-128c-11.797 0-21.333 9.557-21.333 21.333s9.536 21.333 21.333 21.333h170.667v-170.667c0-11.776-9.536-21.333-21.333-21.333z" />
<glyph unicode="&#xe905;" glyph-name="hosts" d="M20.48 632.32v-696.32h983.040v1024h-983.040v-327.68zM962.56-23.040h-901.12v286.72h901.12v-286.72zM962.56 304.64h-901.12v286.72h901.12v-286.72zM61.44 919.040h901.12v-286.72h-901.12v286.72zM143.36 796.16h552.96v-40.96h-552.96v40.96zM839.68 796.16h40.96v-40.96h-40.96v40.96zM143.36 468.48h552.96v-40.96h-552.96v40.96zM839.68 468.48h40.96v-40.96h-40.96v40.96zM143.36 140.8h552.96v-40.96h-552.96v40.96zM839.68 140.8h40.96v-40.96h-40.96v40.96z" />
<glyph unicode="&#xe906;" glyph-name="link" d="M0 448c0 141.385 114.615 256 256 256v0h192c141.385 0 256-114.615 256-256v0h-128c0 70.692-57.308 128-128 128v0h-192c-70.692 0-128-57.308-128-128v0c0-70.692 57.308-128 128-128v0l64-128h-64c-141.385 0-256 114.615-256 256v0zM704 704h64c141.385 0 256-114.615 256-256v0c0-141.385-114.615-256-256-256v0h-192c-141.385 0-256 114.615-256 256v0h128c0-70.692 57.308-128 128-128v0h192c70.692 0 128 57.308 128 128v0c0 70.692-57.308 128-128 128v0z" />
<glyph unicode="&#xe907;" glyph-name="monitoring" d="M512 113.6l-12.8 11.2c-291.2 236.8-369.6 320-369.6 456 0 112 91.2 201.6 201.6 201.6 92.8 0 145.6-52.8 180.8-92.8 35.2 40 88 92.8 180.8 92.8 112 0 201.6-91.2 201.6-201.6 0-136-78.4-219.2-369.6-456l-12.8-11.2zM331.2 740.8c-88 0-160-72-160-160 0-116.8 73.6-193.6 340.8-412.8 267.2 219.2 340.8 296 340.8 412.8 0 88-72 160-160 160-80 0-123.2-48-156.8-86.4l-24-27.2-24 27.2c-33.6 38.4-76.8 86.4-156.8 86.4v0zM0 464c-0.067 0.001-0.147 0.002-0.226 0.002-8.837 0-16.002-7.164-16.002-16.002s7.164-16.002 16.002-16.002c0.080 0 0.159 0.001 0.238 0.002h300.8c0.067-0.001 0.147-0.002 0.226-0.002 8.837 0 16.002 7.164 16.002 16.002s-7.164 16.002-16.002 16.002c-0.080 0-0.159-0.001-0.238-0.002h0.012zM379.688 685c-0.123 0.003-0.268 0.005-0.413 0.005-6.993 0-12.938-4.486-15.115-10.737l-0.034-0.112-78.406-220.813c-0.665-1.693-1.051-3.653-1.051-5.703 0-8.837 7.164-16.002 16.002-16.002 7.055 0 13.044 4.566 15.173 10.905l0.033 0.113 78.406 220.781c0.633 1.654 0.999 3.567 0.999 5.566 0 8.694-6.933 15.768-15.572 15.996h-0.021zM379 685.031c-8.783-0.072-15.875-7.208-15.875-16.001 0-1.73 0.274-3.395 0.782-4.956l-0.032 0.113 132.812-440c1.913-6.85 8.098-11.792 15.438-11.792 8.837 0 16.002 7.164 16.002 16.002 0 1.803-0.298 3.536-0.848 5.153l0.033-0.113-132.781 440c-1.979 6.749-8.115 11.594-15.383 11.594-0.052 0-0.104 0-0.157-0.001h0.008zM644.156 587.406c-6.543-0.302-12.035-4.49-14.245-10.296l-0.037-0.11-132.781-342.406c-0.807-1.848-1.277-4.001-1.277-6.264 0-8.837 7.164-16.002 16.002-16.002 6.927 0 12.826 4.401 15.053 10.56l0.035 0.111 132.812 342.406c0.742 1.78 1.174 3.847 1.174 6.015 0 8.837-7.164 16.002-16.002 16.002-0.258 0-0.515-0.006-0.771-0.018l0.036 0.001zM644.094 587.406c-8.566-0.343-15.38-7.371-15.38-15.99 0-1.908 0.334-3.738 0.946-5.434l-0.035 0.111 48-142.406c2.199-6.391 8.159-10.901 15.172-10.901 8.842 0 16.009 7.168 16.009 16.009 0 1.829-0.307 3.586-0.871 5.223l0.034-0.113-48 142.406c-2.134 6.498-8.146 11.107-15.235 11.107-0.225 0-0.449-0.005-0.672-0.014l0.032 0.001zM692.812 444.812c-0.067 0.001-0.147 0.002-0.226 0.002-8.837 0-16.002-7.164-16.002-16.002s7.164-16.002 16.002-16.002c0.080 0 0.159 0.001 0.238 0.002h319.988c0.067-0.001 0.147-0.002 0.226-0.002 8.837 0 16.002 7.164 16.002 16.002s-7.164 16.002-16.002 16.002c-0.080 0-0.159-0.001-0.238-0.002h0.012z" />
<glyph unicode="&#xe908;" glyph-name="pollers" d="M320 954.719c-8.836-0.001-15.999-7.164-16-16v0-384c0.001-8.836 7.164-15.999 16-16h384c8.836 0.001 15.999 7.164 16 16v0 384c-0.001 8.836-7.164 15.999-16 16v0zM336 922.719h352v-352h-352zM409.75 172.312c-8.836-0.001-15.999-7.164-16-16v0-204.469c0.001-8.836 7.164-15.999 16-16h204.5c8.836 0.001 15.999 7.164 16 16v0 204.469c-0.001 8.836-7.164 15.999-16 16v0zM425.75 140.312h172.5v-172.469h-172.5zM17.281 172.312c-8.836-0.001-15.999-7.164-16-16v0-204.469c0.001-8.836 7.164-15.999 16-16h204.469c8.836 0.001 15.999 7.164 16 16v0 204.469c-0.001 8.836-7.164 15.999-16 16v0zM33.281 140.312h172.469v-172.469h-172.469zM802.094 172.312c-8.836-0.001-15.999-7.164-16-16v0-204.469c0.001-8.836 7.164-15.999 16-16h204.469c8.836 0.001 15.999 7.164 16 16v0 204.469c-0.001 8.836-7.164 15.999-16 16v0zM818.094 140.312h172.469v-172.469h-172.469zM511.75 570.938c-8.729-0.141-15.752-7.25-15.752-16 0-0.077 0.001-0.154 0.002-0.231v0.012-398.406c-0.001-0.067-0.002-0.147-0.002-0.226 0-8.837 7.164-16.002 16.002-16.002s16.002 7.164 16.002 16.002c0 0.080-0.001 0.159-0.002 0.238v-0.012 398.406c0.001 0.065 0.002 0.142 0.002 0.219 0 8.837-7.164 16.002-16.002 16.002-0.088 0-0.176-0.001-0.263-0.002h0.013zM119.688 434.719c-8.836-0.001-15.999-7.164-16-16v0-262.406c-0.001-0.067-0.002-0.147-0.002-0.226 0-8.837 7.164-16.002 16.002-16.002s16.002 7.164 16.002 16.002c0 0.080-0.001 0.159-0.002 0.238v-0.012 246.406h752.625v-246.406c-0.001-0.067-0.002-0.147-0.002-0.226 0-8.837 7.164-16.002 16.002-16.002s16.002 7.164 16.002 16.002c0 0.080-0.001 0.159-0.002 0.238v-0.012 262.406c-0.001 8.836-7.164 15.999-16 16v0z" />
<glyph unicode="&#xe909;" glyph-name="reporting" d="M100.011 260.267c-7.168 0-13.995 2.901-19.115 8.021v0c-4.949 4.949-7.851 11.947-7.851 19.115v0 514.56c0 7.168 2.901 13.995 7.851 19.115v0c5.12 5.12 12.117 7.851 19.115 7.851v0h382.123v90.624c0 14.848 12.117 26.965 26.965 26.965v0c14.848 0 27.136-12.117 27.136-26.965v0-117.589c0-7.168-2.901-13.995-7.851-19.115v0c-5.12-5.12-11.947-8.021-19.115-8.021v0h-382.123v-460.459h771.584v460.459h-275.797c-14.848 0-26.965 12.117-26.965 27.136v0c0 14.848 12.117 26.965 26.965 26.965v0h302.763c7.168 0 13.995-2.901 19.115-7.851v0c4.949-5.12 7.851-11.947 7.851-19.115v0-514.56c0-7.168-2.731-13.995-7.851-19.115v0c-5.12-5.12-11.947-8.021-19.115-8.021v0h-825.685zM190.123 430.933c0 15.019 12.117 26.965 27.136 26.965v0h47.957l87.552 96.256c5.291 5.973 12.971 9.045 20.821 8.875v0c8.021-0.171 15.189-3.925 20.309-10.069v0l61.611-76.971 165.888 169.301c4.949 5.12 11.947 8.192 19.115 8.192v0c7.168 0 14.165-2.731 19.285-7.851v0l80.384-80.213 39.936 57.344c8.533 12.288 25.429 15.36 37.547 6.827v0c12.288-8.533 15.189-25.259 6.827-37.547v0l-58.539-83.797c-4.608-6.656-11.776-10.752-19.797-11.435v0c-8.021-0.683-15.701 2.219-21.333 7.68v0l-83.968 83.797-168.107-171.691c-5.461-5.461-12.971-8.533-20.651-8.021v0c-7.68 0.341-14.848 4.096-19.797 10.069v0l-60.928 76.117-74.411-81.749c-5.12-5.632-12.288-8.875-19.968-8.875v0h-59.904c-14.677-0.171-26.965 11.947-26.965 26.795v0zM100.011 158.72c-14.848 0-26.965 12.117-26.965 26.965v0c0 14.848 12.117 26.965 26.965 26.965v0h825.685c14.848 0 26.965-12.117 26.965-26.965v0c0-14.848-12.117-26.965-26.965-26.965v0h-825.685zM485.888 59.563v126.293c0 14.848 12.117 26.965 26.965 26.965v0c14.848 0 26.965-12.117 26.965-26.965v0-126.293c0-14.848-12.117-26.965-26.965-26.965v0c-15.019-0.171-26.965 12.117-26.965 26.965v0zM185.173-47.616c-13.141 7.168-17.92 23.552-10.923 36.693v0l113.664 209.749c7.168 12.971 23.552 17.92 36.693 10.923v0c13.141-7.168 17.92-23.552 10.923-36.693v0l-113.664-209.749c-4.949-8.875-14.165-14.165-23.893-14.165v0c-4.437-0.171-8.875 1.024-12.8 3.243v0zM806.059-36.864l-113.835 209.749c-7.168 13.141-2.219 29.525 10.923 36.693v0c13.141 7.168 29.355 2.219 36.693-10.923v0l113.664-209.749c7.168-13.141 2.219-29.525-10.923-36.693v0c-4.096-2.219-8.533-3.243-12.8-3.243v0c-9.557 0-18.773 5.12-23.723 14.165v0z" />
<glyph unicode="&#xe90a;" glyph-name="services" d="M392.576 358.741l-153.963-153.963c-24.96 18.667-55.787 29.888-89.28 29.888-82.325 0-149.333-66.987-149.333-149.333s67.008-149.333 149.333-149.333 149.333 66.987 149.333 149.333c0 33.493-11.221 64.32-29.909 89.259l153.963 153.963c19.52-14.635 42.688-24.555 67.925-28.203v-67.413c-72.235-10.411-128-72.555-128-147.627 0-82.347 67.008-149.333 149.333-149.333s149.333 66.987 149.333 149.333c0 75.072-55.765 137.216-128 147.627v67.413c25.237 3.627 48.405 13.568 67.925 28.203l153.963-153.963c-18.645-24.939-29.867-55.765-29.867-89.259 0-82.347 67.008-149.333 149.333-149.333s149.333 66.987 149.333 149.333-67.008 149.333-149.333 149.333c-33.493 0-64.32-11.221-89.259-29.909l-153.963 153.963c14.635 19.52 24.555 42.688 28.203 67.925h67.413c10.411-72.256 72.555-128 147.627-128 82.325 0 149.333 66.987 149.333 149.333s-67.008 149.333-149.333 149.333c-75.072 0-137.216-55.744-147.627-128h-67.413c-3.627 25.237-13.568 48.405-28.203 67.925l153.963 153.963c24.939-18.645 55.765-29.867 89.259-29.867 82.325 0 149.333 66.987 149.333 149.333s-67.008 149.333-149.333 149.333-149.333-66.987-149.333-149.333c0-33.493 11.221-64.32 29.909-89.259l-153.963-153.963c-19.541 14.613-42.709 24.555-67.947 28.181v67.413c72.235 10.411 128 72.555 128 147.627 0 82.347-67.008 149.333-149.333 149.333s-149.333-66.987-149.333-149.333c0-75.072 55.765-137.216 128-147.627v-67.413c-25.237-3.627-48.405-13.568-67.925-28.203l-153.963 153.963c18.667 24.96 29.888 55.787 29.888 89.28 0 82.347-67.008 149.333-149.333 149.333s-149.333-66.987-149.333-149.333 67.008-149.333 149.333-149.333c33.493 0 64.32 11.221 89.259 29.909l153.963-153.963c-14.613-19.541-24.555-42.709-28.181-67.947h-67.413c-10.411 72.256-72.555 128-147.627 128-82.325 0-149.333-66.987-149.333-149.333s67.008-149.333 149.333-149.333c75.072 0 137.216 55.744 147.627 128h67.413c3.627-25.237 13.568-48.405 28.203-67.925zM512 554.667c58.816 0 106.667-47.851 106.667-106.667s-47.851-106.667-106.667-106.667-106.667 47.851-106.667 106.667 47.851 106.667 106.667 106.667zM149.333-21.333c-58.816 0-106.667 47.851-106.667 106.667s47.851 106.667 106.667 106.667 106.667-47.851 106.667-106.667-47.851-106.667-106.667-106.667zM618.667 85.333c0-58.816-47.851-106.667-106.667-106.667s-106.667 47.851-106.667 106.667 47.851 106.667 106.667 106.667 106.667-47.851 106.667-106.667zM981.333 85.333c0-58.816-47.851-106.667-106.667-106.667s-106.667 47.851-106.667 106.667 47.851 106.667 106.667 106.667 106.667-47.851 106.667-106.667zM874.667 554.667c58.816 0 106.667-47.851 106.667-106.667s-47.851-106.667-106.667-106.667-106.667 47.851-106.667 106.667 47.851 106.667 106.667 106.667zM874.667 917.333c58.816 0 106.667-47.851 106.667-106.667s-47.851-106.667-106.667-106.667-106.667 47.851-106.667 106.667 47.851 106.667 106.667 106.667zM405.333 810.667c0 58.816 47.851 106.667 106.667 106.667s106.667-47.851 106.667-106.667-47.851-106.667-106.667-106.667-106.667 47.851-106.667 106.667zM42.667 810.667c0 58.816 47.851 106.667 106.667 106.667s106.667-47.851 106.667-106.667-47.851-106.667-106.667-106.667-106.667 47.851-106.667 106.667zM149.333 341.333c-58.816 0-106.667 47.851-106.667 106.667s47.851 106.667 106.667 106.667 106.667-47.851 106.667-106.667-47.851-106.667-106.667-106.667zM554.667 448c0-23.564-19.103-42.667-42.667-42.667s-42.667 19.103-42.667 42.667c0 23.564 19.103 42.667 42.667 42.667s42.667-19.103 42.667-42.667z" />
<glyph unicode="&#xe90b;" glyph-name="user" d="M514.214 950c-277.268 0-501.996-224.73-501.996-501.996s224.728-502.004 501.996-502.004 501.996 224.74 501.996 502.004c0 277.266-224.73 501.996-501.996 501.996zM514.214 908.166c253.736 0 460.164-206.428 460.164-460.164 0-111.63-39.994-214.086-106.38-293.852-45.878 19.16-154.178 56.744-221.218 76.538-5.718 1.796-6.618 2.084-6.618 25.88 0 19.652 8.088 39.442 15.974 56.192 8.538 18.2 18.668 48.798 22.306 76.252 10.172 11.808 24.020 35.094 32.926 79.478 7.802 39.118 4.166 53.354-1.020 66.714-0.532 1.41-1.104 2.798-1.512 4.188-1.962 9.172 0.734 56.826 7.436 93.798 4.616 25.37-1.186 79.316-36.114 123.944-22.060 28.21-64.262 62.832-141.35 67.652l-42.282-0.040c-75.782-4.782-118.024-39.402-140.084-67.612-34.928-44.63-40.728-98.576-36.112-123.926 6.74-36.99 9.396-84.644 7.476-93.632-0.408-1.572-0.98-2.962-1.552-4.372-5.148-13.36-8.824-27.596-0.98-66.714 8.864-44.384 22.714-67.672 32.926-79.478 3.596-27.452 13.728-58.052 22.306-76.252 6.25-13.318 9.192-31.436 9.192-57.050 0-23.796-0.9-24.084-6.252-25.778-69.326-20.468-179.668-60.34-220.808-78.356-67.692 80.132-108.586 183.57-108.586 296.424-0.002 253.74 206.426 460.166 460.162 460.166zM192.948 118.968c47.104 19.23 141.024 52.73 202.71 70.95 35.87 11.316 35.87 41.526 35.87 65.792 0 20.12-1.388 49.78-13.154 74.862-8.090 17.178-17.324 46.634-19.364 69.694-0.45 5.392-2.982 10.376-7.068 13.93-5.924 5.19-17.976 24.186-25.656 62.504-6.086 30.334-3.512 36.972-1.020 43.386 1.062 2.738 2.084 5.434 2.902 8.478 5.024 18.362-0.574 78.682-6.66 112.14-2.654 14.544 0.694 55.866 27.902 90.674 24.388 31.19 61.318 48.574 108.422 51.576l39.668 0.042c48.37-3.044 85.3-20.428 109.73-51.618 27.208-34.808 30.518-76.13 27.86-90.692-6.046-33.44-11.684-93.758-6.66-112.1 0.86-3.064 1.838-5.76 2.902-8.498 2.494-6.412 5.066-13.052-0.98-43.386-7.678-38.32-19.772-57.316-25.696-62.504-4.044-3.554-6.576-8.538-7.068-13.93-2.002-23.060-11.234-52.516-19.322-69.694-9.274-19.712-19.936-45.96-19.936-74.004 0-24.268 0-54.478 36.236-65.896 59.032-17.444 153.402-49.86 203.242-69.46-83.216-82.398-197.562-133.382-323.594-133.382-124.886 0-238.252 50.084-321.266 131.136z" />
<glyph unicode="&#xe90c;" glyph-name="icon-copied" d="M705.2 138.8v463.4l-193 193h-154.4v116h347.6v-193h193v-579.2h-193.2zM512.2 740.8l138.4-138.4h-138.4v138.4zM126-15.6v772.4h347.6v-193h193v-579.2h-540.6zM744 895.2l138.4-138.4h-138.4v138.4zM937 756.8l-193 193h-424.8v-154.4h-231.8v-849.6h617.8v154.4h231.6v656.6zM273.916 329.103l33.295 31.74 236.67-248.263-33.295-31.74-236.67 248.263zM492.324 97.812l335.875 417.179 35.829-28.847-335.875-417.179-35.829 28.847z" />
<glyph unicode="&#xe90d;" glyph-name="icon-copy" d="M936.986 756.726l-193.076 193.078h-424.77v-154.462h-231.692v-849.538h617.846v154.462h231.692v656.46zM743.91 895.198l138.472-138.47h-138.472v138.47zM126.062-15.58v772.306h347.538v-193.076h193.076v-579.23h-540.614zM512.216 740.736l138.472-138.47h-138.472v138.47zM705.294 138.88v463.386l-193.076 193.076h-154.462v115.846h347.538v-193.076h193.076v-579.232h-193.076z" />
<glyph unicode="&#xe90e;" glyph-name="icon-top-counter" horiz-adv-x="1614" d="M319.318 770.656c-87.487 0-158.857-71.37-158.857-158.857s71.37-158.857 158.857-158.857c87.487 0 158.857 71.37 158.857 158.857s-71.37 158.857-158.857 158.857zM319.318 728.936c64.94 0 117.137-52.197 117.137-117.137s-52.197-117.137-117.137-117.137c-64.94 0-117.137 52.197-117.137 117.137s52.197 117.137 117.137 117.137zM158.857 308.527c-87.487 0-158.857-71.37-158.857-158.857s71.37-158.857 158.857-158.857c87.487 0 158.857 71.37 158.857 158.857s-71.37 158.857-158.857 158.857zM158.857 266.807c64.94 0 117.137-52.197 117.137-117.137s-52.197-117.137-117.137-117.137c-64.94 0-117.137 52.197-117.137 117.137s52.197 117.137 117.137 117.137zM801.567 960c-87.487 0-158.857-71.37-158.857-158.857s71.37-158.857 158.857-158.857c87.487 0 158.857 71.37 158.857 158.857s-71.37 158.857-158.857 158.857zM801.567 918.28c64.94 0 117.137-52.197 117.137-117.137s-52.197-117.137-117.137-117.137c-64.94 0-117.137 52.197-117.137 117.137s52.197 117.137 117.137 117.137zM1282.086 773.865c-87.487 0-158.857-71.37-158.857-158.857s71.37-158.857 158.857-158.857c87.487 0 158.857 71.37 158.857 158.857s-71.37 158.857-158.857 158.857zM1282.086 732.145c64.94 0 117.137-52.197 117.137-117.137s-52.197-117.137-117.137-117.137c-64.94 0-117.137 52.197-117.137 117.137s52.197 117.137 117.137 117.137zM1455.384 311.736c-87.487 0-158.857-71.37-158.857-158.857s71.37-158.857 158.857-158.857c87.487 0 158.857 71.37 158.857 158.857s-71.37 158.857-158.857 158.857zM1455.384 270.016c64.94 0 117.137-52.197 117.137-117.137s-52.197-117.137-117.137-117.137c-64.94 0-117.137 52.197-117.137 117.137s52.197 117.137 117.137 117.137zM800.702 376.178c-121.305 0-220.089-98.784-220.089-220.089s98.784-220.089 220.089-220.089c121.305 0 220.089 98.784 220.089 220.089s-98.784 220.089-220.089 220.089zM800.702 334.458c98.757 0 178.369-79.612 178.369-178.369s-79.612-178.369-178.369-178.369c-98.757 0-178.369 79.612-178.369 178.369s79.612 178.369 178.369 178.369zM779.842 663.178v-307.992h41.72v307.992zM1173.988 525.726l-259.69-199.003 25.373-33.114 259.697 199.003zM999.386 168.894v-41.72h318.096v41.72zM296.759 168.957v-41.72h304.714v41.72zM431.121 531.781l-26.301-32.387 254.269-206.45 26.294 32.387z" />
<glyph unicode="&#xe90f;" glyph-name="arrow-down" d="M292.8 537.6l32 32 187.2-188.8 187.2 188.8 32-32-219.2-219.2-219.2 219.2z" />
<glyph unicode="&#xe910;" glyph-name="button-delete" d="M672 768h128v-32h-544v32h128v32c0 35.593 28.616 64 63.917 64h160.167c35.249 0 63.917-28.654 63.917-64v-32zM256 704h544v-607.956c0-53.066-42.982-96.044-96.004-96.044h-351.992c-53.317 0-96.004 43.001-96.004 96.044v607.956zM288 672v-576.295c0-35.184 28.589-63.705 63.74-63.705h352.519c35.203 0 63.74 28.743 63.74 63.705v576.295h-480zM384 608h32v-512h-32v512zM512 608h32v-512h-32v512zM640 608h32v-512h-32v512zM448.094 832c-17.725 0-32.094-14.204-32.094-32v-32h224v32c0 17.673-14.012 32-32.094 32h-159.813z" />
<glyph unicode="&#xe911;" glyph-name="button-update" d="M818.88 837.4c-11.173-0.18-20.162-9.28-20.162-20.48 0-0.099 0.001-0.197 0.002-0.295v0.015-163.84l-163.84 0.041c-0.086 0.001-0.188 0.002-0.29 0.002-11.312 0-20.482-9.17-20.482-20.482s9.17-20.482 20.482-20.482c0.102 0 0.203 0.001 0.305 0.002l204.785-0.041v204.8c0.001 0.083 0.002 0.182 0.002 0.28 0 11.312-9.17 20.482-20.482 20.482-0.112 0-0.225-0.001-0.337-0.003h0.017zM511.96 816.64c-203.372 0-368.64-165.268-368.64-368.64-0.001-0.086-0.002-0.188-0.002-0.29 0-11.312 9.17-20.482 20.482-20.482s20.482 9.17 20.482 20.482c0 0.102-0.001 0.203-0.002 0.305v-0.015c0 181.242 146.438 327.68 327.68 327.68 96.721 0 183.415-41.738 243.4-108.24 11.922-13.233 22.786-27.45 32.44-42.48 3.7-5.703 10.036-9.423 17.24-9.423 11.312 0 20.483 9.17 20.483 20.483 0 4.108-1.209 7.933-3.291 11.14l0.048-0.080c-10.867 16.919-23.088 32.895-36.48 47.76v0.041c-67.442 74.768-165.31 121.759-273.84 121.759zM184.32 284.16v-204.8c-0.001-0.086-0.002-0.188-0.002-0.29 0-11.312 9.17-20.482 20.482-20.482s20.482 9.17 20.482 20.482c0 0.102-0.001 0.203-0.002 0.305v-0.015 163.84l163.84-0.041c0.086-0.001 0.188-0.002 0.29-0.002 11.312 0 20.482 9.17 20.482 20.482s-9.17 20.482-20.482 20.482c-0.102 0-0.203-0.001-0.305-0.002h0.015zM859.88 468.76c-11.173-0.18-20.162-9.28-20.162-20.48 0-0.099 0.001-0.197 0.002-0.295v0.015c0-181.242-146.438-327.68-327.68-327.68-96.718 0-183.414 41.756-243.4 108.24-11.936 13.269-22.791 27.457-32.44 42.48-3.699 5.705-10.036 9.426-17.242 9.426-11.312 0-20.483-9.17-20.483-20.483 0-4.109 1.21-7.936 3.293-11.143l-0.048 0.079c10.872-16.926 23.103-32.889 36.48-47.76v-0.041c67.44-74.745 165.308-121.759 273.84-121.759 203.372 0 368.64 165.268 368.64 368.64 0.001 0.083 0.002 0.182 0.002 0.28 0 11.312-9.17 20.482-20.482 20.482-0.112 0-0.225-0.001-0.337-0.003h0.017z" />
<glyph unicode="&#xe912;" glyph-name="checked" d="M512 960c-281.6 0-512-230.4-512-512s230.4-512 512-512c281.6 0 512 230.4 512 512s-230.4 512-512 512v0zM409.6 192l-256 256 71.68 71.68 184.32-184.32 389.12 389.12 71.68-71.68-460.8-460.8z" />
<glyph unicode="&#xe913;" glyph-name="check-mark" d="M702.067 619.968l-235.328-235.328-144.806 144.819-54.31-54.31 199.117-199.117 289.638 289.626z" />
<glyph unicode="&#xe914;" glyph-name="clock" d="M510.4 81.6c-201.6 0-366.4 164.8-366.4 366.4s164.8 366.4 366.4 366.4c201.6 0 366.4-164.8 366.4-366.4 1.6-201.6-163.2-366.4-366.4-366.4v0zM510.4 776c-180.8 0-326.4-147.2-326.4-326.4s147.2-326.4 326.4-326.4 326.4 147.2 326.4 326.4-145.6 326.4-326.4 326.4v0zM625.6 260.8l-136 136v248h43.2v-230.4l123.2-123.2-30.4-30.4z" />
<glyph unicode="&#xe915;" glyph-name="close" d="M558.688 447.552l263.648 262.208c12.64 12.512 12.64 32.768 0 45.248-12.608 12.512-33.088 12.512-45.696 0l-263.424-261.984-265.856 265.888c-12.608 12.64-33.088 12.64-45.696 0-12.608-12.672-12.608-33.184 0-45.824l265.664-265.696-266.624-265.152c-12.608-12.512-12.608-32.768 0-45.248 12.608-12.512 33.088-12.512 45.696 0l266.4 264.928 264.8-264.832c12.608-12.64 33.088-12.64 45.696 0 12.608 12.672 12.608 33.184 0 45.824l-264.608 264.64z" />
<glyph unicode="&#xe916;" glyph-name="cloud-error" d="M395.636 192h-139.546c-70.556 0-128.090 57.308-128.090 128 0 60.652 42.388 111.624 99.232 124.731v0c-2.123 11.433-3.232 23.221-3.232 35.269 0 106.039 85.961 192 192 192 83.694 0 154.881-53.551 181.166-128.257 24.779 20.167 56.395 32.257 90.834 32.257 75.467 0 137.375-58.053 143.502-131.938v0c55.362-14.081 96.498-64.286 96.498-124.062 0-70.549-57.348-128-128.090-128h-139.546l-132.364 224-132.364-224zM679.273 160h120.745c88.356 0 159.982 71.814 159.982 160 0 67.085-41.175 124.528-99.748 148.304v0c-16.731 79.784-87.495 139.696-172.252 139.696-27.613 0-53.74-6.359-76.998-17.692-38.484 67.886-111.394 113.692-195.002 113.692-123.712 0-224-100.288-224-224 0-4.421 0.128-8.812 0.381-13.169v0c-56.712-24.642-96.381-81.203-96.381-146.831 0-88.366 71.44-160 159.982-160h120.745l-56.727-96h416l-56.727 96zM528 352l152-256h-304l152 256zM512 288v-96h32v96h-32zM512 160v-32h32v32h-32z" />
<glyph unicode="&#xe917;" glyph-name="content-slider-controls" d="M724.086 937.157l82.078-82.078-426.772-426.772 426.772-426.772-82.078-82.078-508.849 508.849z" />
<glyph unicode="&#xe918;" glyph-name="file-upload" d="M512 448l-104-104-24 24 144 144 144-144-24-24-104 104v-352h-32v352zM480 288h-223.91c-70.556 0-128.090 57.308-128.090 128 0 60.652 42.388 111.624 99.232 124.731v0c-2.123 11.433-3.232 23.221-3.232 35.269 0 106.039 85.961 192 192 192 83.694 0 154.881-53.551 181.166-128.257 24.779 20.167 56.395 32.257 90.834 32.257 75.467 0 137.375-58.053 143.502-131.938v0c55.362-14.081 96.498-64.286 96.498-124.062 0-70.549-57.348-128-128.090-128h-223.91v-32h224.018c88.356 0 159.982 71.814 159.982 160 0 67.085-41.175 124.528-99.748 148.304v0c-16.731 79.784-87.495 139.696-172.252 139.696-27.613 0-53.74-6.359-76.998-17.692-38.484 67.886-111.394 113.692-195.002 113.692-123.712 0-224-100.288-224-224 0-4.421 0.128-8.812 0.381-13.169v0c-56.712-24.642-96.381-81.203-96.381-146.831 0-88.366 71.44-160 159.982-160h224.018v32z" />
<glyph unicode="&#xe919;" glyph-name="note-text" d="M192 608v-480.040c0-17.924 14.434-31.96 32.239-31.96h447.761v159.811c0 35.82 28.624 64.189 63.933 64.189h128.067v288h-672zM192 640h672v95.781c0 17.821-14.309 32.219-31.96 32.219h-608.080c-17.924 0-31.96-14.309-31.96-31.96v-96.040zM688 64h-463.997c-35.348 0-64.003 28.852-64.003 64.028v607.945c0 35.361 28.852 64.028 64.028 64.028h607.945c35.361 0 64.028-28.624 64.028-63.81v-448.19l-192-224h-16zM704 112l150.398 176h-118.503c-17.475 0-31.896-14.453-31.896-32.281v-143.719zM256 512h544v-32h-544v32zM256 416h544v-32h-544v32zM256 320h352v-32h-352v32zM256 224h352v-32h-352v32z" />
<glyph unicode="&#xe91a;" glyph-name="package" d="M608 544v-224h-160v224h-288v-448h736v448h-288zM480 800h-172.801l-140-224h280.801l32 224zM576 800l32-224h280.801l-140 224h-172.801zM128 560v16l160 256h480l160-256v-512h-800v496zM512 800l-32-224h96l-32 224h-32zM480 544v-192h96v192h-96zM192 288v-32h224v32h-224zM192 160v-32h224v32h-224zM192 224v-32h160v32h-160z" />
<glyph unicode="&#xe91b;" glyph-name="pause" d="M272.23 908.8v-921.6c0-11.305 9.175-20.48 20.48-20.48h133.12c11.305 0 20.48 9.175 20.48 20.48v921.6c0 11.305-9.175 20.48-20.48 20.48h-133.12c-11.305 0-20.48-9.175-20.48-20.48zM313.19 888.32h92.16v-880.64h-92.16v880.64zM577.69 908.8v-921.6c0-11.305 9.175-20.48 20.48-20.48h133.12c11.305 0 20.48 9.175 20.48 20.48v921.6c0 11.305-9.175 20.48-20.48 20.48h-133.12c-11.315 0-20.48-9.175-20.48-20.48zM618.65 888.32h92.16v-880.64h-92.16v880.64z" />
<glyph unicode="&#xe91c;" glyph-name="pause-with-border" d="M410.063 698.468c-6.332 0-11.532-5.2-11.532-11.532v-415.135c0-6.332 5.2-11.532 11.532-11.532h59.964c6.332 0 11.532 5.2 11.532 11.532v415.135c0 6.332-5.2 11.532-11.532 11.532zM410.063 693.856h59.964c3.816 0 6.919-3.103 6.919-6.919v-415.135c0-3.816-3.103-6.919-6.919-6.919h-59.964c-3.816 0-6.919 3.103-6.919 6.919v415.135c0 3.816 3.103 6.919 6.919 6.919zM416.982 680.018v-401.297h46.126v401.297zM421.595 675.405h36.901v-392.072h-36.901zM547.514 698.468c-6.332 0-11.532-5.2-11.532-11.532v-415.135c0-6.332 5.2-11.532 11.532-11.532h59.964c6.332 0 11.532 5.2 11.532 11.532v415.135c0 6.332-5.2 11.532-11.532 11.532zM547.514 693.856h59.964c3.816 0 6.919-3.103 6.919-6.919v-415.135c0-3.816-3.103-6.919-6.919-6.919h-59.964c-3.816 0-6.919 3.103-6.919 6.919v415.135c0 3.816 3.103 6.919 6.919 6.919zM554.432 680.018v-401.297h46.126v401.297zM559.045 675.405h36.901v-392.072h-36.901zM509.694 823.928c-186.366 0-337.64-151.274-337.64-337.64s151.274-337.649 337.64-337.649c186.366 0 337.64 151.283 337.64 337.649s-151.274 337.64-337.64 337.64zM509.694 805.477c176.395 0 319.189-142.795 319.189-319.189s-142.795-319.198-319.189-319.198c-176.395 0-319.189 142.804-319.189 319.198s142.795 319.189 319.189 319.189z" />
<glyph unicode="&#xe91d;" glyph-name="play" d="M512 842c53.204 0 104.798-10.414 153.354-30.95 46.912-19.842 89.052-48.256 125.246-84.45 36.196-36.196 64.608-78.334 84.452-125.248 20.536-48.554 30.948-100.148 30.948-153.352s-10.412-104.798-30.95-153.354c-19.844-46.912-48.256-89.052-84.452-125.246-36.194-36.196-78.334-64.608-125.246-84.452-48.554-20.536-100.148-30.948-153.352-30.948s-104.798 10.412-153.352 30.95c-46.914 19.844-89.052 48.256-125.248 84.452-36.194 36.194-64.608 78.334-84.45 125.246-20.536 48.554-30.95 100.148-30.95 153.352s10.414 104.798 30.95 153.352c19.842 46.914 48.256 89.052 84.45 125.248 36.196 36.194 78.334 64.608 125.248 84.45 48.554 20.536 100.148 30.95 153.352 30.95zM512 874c-235.274 0-426-190.726-426-426s190.726-426 426-426 426 190.726 426 426-190.726 426-426 426v0zM421.998 258c-2.502 0-5.016 0.586-7.326 1.776-5.326 2.744-8.672 8.234-8.672 14.224v348c0 5.992 3.346 11.48 8.672 14.224 5.326 2.746 11.738 2.282 16.618-1.196l244-174c4.21-3.004 6.71-7.856 6.71-13.028s-2.5-10.024-6.71-13.028l-244-174c-2.764-1.97-6.020-2.972-9.292-2.972zM438 590.938v-285.878l200.444 142.94-200.444 142.938z" />
<glyph unicode="&#xe91e;" glyph-name="search" d="M621.668 306.332c-44.476-31.692-98.895-50.332-157.668-50.332-150.221 0-272 121.779-272 272s121.779 272 272 272c150.221 0 272-121.779 272-272 0-75.111-30.445-143.111-79.667-192.333l191.916-191.916c8.802-8.802 8.588-22.915-0.249-31.751-8.898-8.898-23.052-8.948-31.751-0.249l-194.581 194.581zM464 288c132.548 0 240 107.452 240 240s-107.452 240-240 240c-132.548 0-240-107.452-240-240s107.452-240 240-240v0z" />
<glyph unicode="&#xe91f;" glyph-name="stop-watch" d="M279.343 607.284c48.95 44.891 110.085 76.707 177.873 89.914-25.155 20.538-41.216 51.794-41.216 86.801 0 61.856 50.144 112 112 112s112-50.144 112-112c0-35.007-16.061-66.263-41.216-86.801v0c67.788-13.208 128.924-45.023 177.873-89.914v0l39.343 39.343-22.627 22.627 22.627 22.627 67.882-67.882-22.627-22.627-22.627 22.627-39.343-39.343c60.060-65.49 96.716-152.793 96.716-248.657 0-203.241-164.759-368-368-368s-368 164.759-368 368c0 95.864 36.656 183.167 96.716 248.657l-39.343 39.343-22.627-22.627-22.627 22.627 67.882 67.882 22.627-22.627-22.627-22.627 39.343-39.343zM548.695 379.322v0 0c-6.266 2.999-13.284 4.678-20.695 4.678-26.51 0-48-21.49-48-48 0-7.41 1.679-14.428 4.678-20.695l-35.796-35.796c-6.291-6.291-6.143-16.639-0.077-22.705 6.248-6.248 16.584-6.044 22.705 0.077l35.796 35.796c6.266-2.999 13.284-4.678 20.695-4.678 26.51 0 48 21.49 48 48 0 7.41-1.679 14.428-4.678 20.695l99.796 99.796c6.291 6.291 6.143 16.639 0.077 22.705-6.248 6.248-16.584 6.044-22.705-0.077l-99.796-99.796zM544 705.6c36.516 7.412 64 39.696 64 78.4 0 44.183-35.817 80-80 80s-80-35.817-80-80c0-38.703 27.484-70.987 64-78.4v62.4h-32v32h96v-32h-32v-62.4zM288.52 320.072h79.857c8.668 0 15.695 7.422 15.695 16 0 8.837-6.882 16-15.695 16h-79.847c7.919 119.766 103.694 215.519 223.47 223.403v-79.78c0-8.668 7.422-15.695 16-15.695 8.837 0 16 6.882 16 15.695v79.78c119.776-7.884 215.551-103.636 223.47-223.403h-79.847c-8.668 0-15.695-7.422-15.695-16 0-8.837 6.882-16 15.695-16h79.857c-7.852-119.834-103.656-215.661-223.48-223.547v79.924c0 8.668-7.422 15.695-16 15.695-8.837 0-16-6.882-16-15.695v-79.924c-119.824 7.887-215.628 103.714-223.48 223.547zM528 0c185.568 0 336 150.432 336 336s-150.432 336-336 336c-185.568 0-336-150.432-336-336s150.432-336 336-336v0zM528 64c150.221 0 272 121.779 272 272s-121.779 272-272 272c-150.221 0-272-121.779-272-272s121.779-272 272-272v0zM528 320v0c-8.837 0-16 7.163-16 16s7.163 16 16 16c8.837 0 16-7.163 16-16s-7.163-16-16-16z" />
<glyph unicode="&#xe920;" glyph-name="warning" d="M493.575 795.251l-345.123-558.368c-37.289-60.329-10.11-108.884 60.438-108.884h670.194c70.532 0 97.607 48.749 60.438 108.884l-345.123 558.368c-27.776 44.938-72.983 45.045-100.825 0zM523.302 783.267c11.115 17.961 29.171 17.904 40.251 0l352.168-569.043c18.534-29.947 4.67-54.224-30.133-54.224h-684.296c-35.176 0-48.766 24.118-30.135 54.224l352.145 569.043zM544 608c-17.673 0-32-14.497-32-31.905v-192.19c0-17.621 14.204-31.905 32-31.905 17.673 0 32 14.497 32 31.905v192.19c0 17.621-14.204 31.905-32 31.905v0zM544 224c17.673 0 32 14.327 32 32s-14.327 32-32 32c-17.673 0-32-14.327-32-32s14.327-32 32-32v0z" />
<glyph unicode="&#xe921;" glyph-name="plus" d="M864.001 416.125c17.604 0 31.875 14.271 31.875 31.875s-14.271 31.875-31.875 31.875l-704 0.001c-17.604 0-31.875-14.271-31.875-31.875s14.271-31.875 31.875-31.875l704-0.001zM543.875 800.001c0 17.604-14.271 31.875-31.875 31.875s-31.875-14.271-31.875-31.875l0.001-704c0-17.604 14.271-31.875 31.875-31.875s31.875 14.271 31.875 31.875l-0.001 704z" />
<glyph unicode="&#xe922;" glyph-name="question" d="M512-64c-282.77 0-512 229.23-512 512s229.23 512 512 512v0c282.77 0 512-229.23 512-512s-229.23-512-512-512v0zM614.4 601.6c0-14.336-10.752-40.96-21.504-51.2l-80.896-80.896c-29.184-29.696-51.2-81.92-51.2-123.904v-51.2h102.4v51.2c0 14.848 10.752 40.96 21.504 51.2l80.896 80.896c29.184 29.696 51.2 81.92 51.2 123.904 0 113.108-91.692 204.8-204.8 204.8s-204.8-91.692-204.8-204.8v0h102.4c0 56.554 45.846 102.4 102.4 102.4s102.4-45.846 102.4-102.4v0zM460.8 192v-102.4h102.4v102.4h-102.4z" />
<glyph unicode="&#xe923;" glyph-name="arrow-right" d="M320 729.2l41.4 38.8 342.6-320-342.6-320-41.4 38.6 301 281.4z" />
<glyph unicode="&#xe924;" glyph-name="arrow-left" d="M896 490.667h-665.003l228.864 228.864c16.661 16.661 16.661 43.68 0.011 60.341-16.661 16.661-43.691 16.661-60.352 0l-301.685-301.696c-1.984-1.984-3.755-4.171-5.312-6.507-0.715-1.077-1.216-2.24-1.824-3.36-0.715-1.323-1.515-2.581-2.091-3.979-0.597-1.44-0.939-2.944-1.376-4.437-0.341-1.184-0.8-2.315-1.045-3.531-0.555-2.763-0.853-5.557-0.853-8.363v0c0-0.032 0.011-0.053 0.011-0.085 0-2.763 0.288-5.536 0.832-8.256 0.256-1.291 0.736-2.475 1.109-3.723 0.416-1.419 0.747-2.859 1.312-4.235 0.619-1.483 1.451-2.827 2.219-4.224 0.576-1.045 1.024-2.112 1.696-3.115 1.568-2.357 3.349-4.555 5.344-6.549l301.675-301.664c16.661-16.661 43.68-16.661 60.341-0.011 16.661 16.661 16.661 43.691 0 60.352l-228.864 228.843h664.992c23.563 0 42.667 19.104 42.667 42.667s-19.104 42.667-42.667 42.667z" />
</font>
</defs>
</svg>
