<svg xmlns="http://www.w3.org/2000/svg" x="0px" y="0px" viewBox="0 0 740.6 821.5"
	xml:space="preserve">
<style type="text/css">
	.st0{opacity:0.68;fill:#B3B3B3;}
	.st1{opacity:0.4;fill:#B3B3B3;}
	.st2{opacity:0.2;fill:#B3B3B3;}
	.st3{fill:#E6E6E6;}
	.st4{fill:#B3B3B3;}
	.st5{fill:#CCCCCC;}
</style>
<switch>
	<g>
		<path class="st0" d="M511.9,160.6c-12.8-25.2-4.6-55.5,18-71.1c-11.5-12.6-24.4-23.5-38.3-32.8c-12,24.8-40.6,37.5-67.5,28.8
			c-26.9-8.8-42.5-36-37.6-63c-16.7-0.8-33.5,0.5-50.2,3.9c9.1,26-2.2,55.3-27.4,68.1c-25.2,12.8-55.5,4.6-71.1-18
			c-12.6,11.5-23.5,24.4-32.8,38.3c24.8,12,37.5,40.6,28.8,67.5c-8.8,26.9-36,42.5-63,37.6c-0.8,16.7,0.5,33.5,3.9,50.2
			c26-9.1,55.3,2.2,68.1,27.4c12.8,25.2,4.6,55.5-18,71.1c11.5,12.6,24.4,23.5,38.3,32.8c12-24.8,40.6-37.5,67.5-28.8
			c26.9,8.8,42.5,36,37.6,63c16.7,0.8,33.5-0.5,50.2-3.9c-9.1-26,2.2-55.3,27.4-68.1c25.2-12.8,55.5-4.6,71.1,18
			c12.6-11.5,23.5-24.4,32.8-38.3c-24.8-12-37.5-40.6-28.8-67.5s36-42.5,63-37.6c0.8-16.7-0.5-33.5-3.9-50.2
			C554,197,524.7,185.8,511.9,160.6z M424.1,321.1c-50.9,25.9-113.1,5.6-139-45.4c-25.9-50.9-5.6-113.1,45.4-139
			c50.9-25.9,113.1-5.6,139,45.4C495.3,233,475,295.3,424.1,321.1z"/>
		<path class="st1" d="M160.7,293c-9.7-8.9-11-23.3-3.8-33.8c-7-3.6-14.4-6.2-22-8c-1.2,12.7-11.5,22.9-24.6,23.5
			c-13.1,0.6-24.3-8.7-26.6-21.2c-7.4,2.4-14.5,5.7-21.2,9.9c8.2,9.8,8.1,24.4-0.8,34c-8.9,9.7-23.3,11-33.8,3.8
			c-3.6,7-6.2,14.4-8,22c12.7,1.2,22.9,11.5,23.5,24.6c0.6,13.1-8.7,24.3-21.2,26.6c2.4,7.4,5.7,14.5,9.9,21.2
			c9.8-8.2,24.4-8.1,34,0.8c9.7,8.9,11,23.3,3.8,33.8c7,3.6,14.4,6.2,22,8c1.2-12.7,11.5-22.9,24.6-23.5s24.3,8.7,26.6,21.2
			c7.4-2.4,14.5-5.7,21.2-9.9c-8.2-9.8-8.1-24.4,0.8-34c8.9-9.7,23.3-11,33.8-3.8c3.6-7,6.2-14.4,8-22
			c-12.7-1.2-22.9-11.5-23.5-24.6c-0.6-13.1,8.7-24.3,21.2-26.6c-2.4-7.4-5.7-14.5-9.9-21.2C184.9,301.9,170.4,301.8,160.7,293z
			 M148.8,377c-17.9,19.5-48.2,20.9-67.7,3c-19.5-17.9-20.9-48.2-3-67.7c17.9-19.5,48.2-20.9,67.7-3
			C165.3,327.1,166.7,357.5,148.8,377z"/>
		<path class="st2" d="M174.9,474.2c-5.8-8.3-4.3-19.4,2.9-26c-4.7-3.9-9.8-7.1-15.1-9.7c-3,9.3-12.5,15.2-22.4,13.5
			c-9.9-1.8-16.8-10.6-16.3-20.4c-5.9,0.5-11.8,1.8-17.5,3.8c4.5,8.7,1.9,19.6-6.3,25.4c-8.3,5.8-19.4,4.3-26-2.9
			c-3.9,4.7-7.1,9.8-9.7,15.1c9.3,3,15.2,12.5,13.5,22.4c-1.8,9.9-10.6,16.8-20.4,16.3c0.5,5.9,1.8,11.8,3.8,17.5
			c8.7-4.5,19.6-1.9,25.4,6.3c5.8,8.3,4.3,19.4-2.9,26c4.7,3.9,9.8,7.1,15.1,9.7c3-9.3,12.5-15.2,22.4-13.5s16.8,10.6,16.3,20.4
			c5.9-0.5,11.8-1.8,17.5-3.8c-4.5-8.7-1.9-19.6,6.3-25.4c8.3-5.8,19.4-4.3,26,2.9c3.9-4.7,7.1-9.8,9.7-15.1
			c-9.3-3-15.2-12.5-13.5-22.4c1.8-9.9,10.6-16.8,20.4-16.3c-0.5-5.9-1.8-11.8-3.8-17.5C191.5,485,180.6,482.4,174.9,474.2z
			 M151.8,535.1c-16.7,11.6-39.6,7.5-51.3-9.2c-11.6-16.7-7.5-39.6,9.2-51.3c16.7-11.6,39.6-7.5,51.3,9.2
			C172.6,500.5,168.5,523.5,151.8,535.1z"/>
		<path class="st3" d="M381,451.3V302.9c0-51.4,42.1-93.5,93.5-93.5h0c51.4,0,93.5,42.1,93.5,93.5v148.4h73.5v-148
			c0-91.8-75.1-167-167-167h0c-91.8,0-167,75.1-167,167v148H381z"/>
		<path class="st4" d="M688.4,799.3H263.7c-17.7,0-32.2-14.5-32.2-32.2V473.5c0-17.7,14.5-32.2,32.2-32.2h424.7
			c17.7,0,32.2,14.5,32.2,32.2v293.7C720.6,784.9,706.1,799.3,688.4,799.3z"/>
		<circle class="st3" cx="474.6" cy="582.3" r="48"/>
		<rect x="459.6" y="545.3" class="st3" width="30" height="150"/>
		<path class="st5" d="M347.6,562.3h-116v-21h116c5.5,0,10,4.5,10,10v1C357.6,557.9,353.1,562.3,347.6,562.3z"/>
		<path class="st5" d="M347.6,595.3h-116v-21h116c5.5,0,10,4.5,10,10v1C357.6,590.9,353.1,595.3,347.6,595.3z"/>
		<path class="st5" d="M347.6,628.3h-116v-21h116c5.5,0,10,4.5,10,10v1C357.6,623.9,353.1,628.3,347.6,628.3z"/>
		<path class="st5" d="M347.6,661.3h-116v-21h116c5.5,0,10,4.5,10,10v1C357.6,656.9,353.1,661.3,347.6,661.3z"/>
		<path class="st5" d="M347.6,694.3h-116v-21h116c5.5,0,10,4.5,10,10v1C357.6,689.9,353.1,694.3,347.6,694.3z"/>
		<path class="st5" d="M604.6,562.3h116v-21h-116c-5.5,0-10,4.5-10,10v1C594.6,557.9,599,562.3,604.6,562.3z"/>
		<path class="st5" d="M604.6,595.3h116v-21h-116c-5.5,0-10,4.5-10,10v1C594.6,590.9,599,595.3,604.6,595.3z"/>
		<path class="st5" d="M604.6,628.3h116v-21h-116c-5.5,0-10,4.5-10,10v1C594.6,623.9,599,628.3,604.6,628.3z"/>
		<path class="st5" d="M604.6,661.3h116v-21h-116c-5.5,0-10,4.5-10,10v1C594.6,656.9,599,661.3,604.6,661.3z"/>
		<path class="st5" d="M604.6,694.3h116v-21h-116c-5.5,0-10,4.5-10,10v1C594.6,689.9,599,694.3,604.6,694.3z"/>
	</g>
</switch>
</svg>
