<svg xmlns="http://www.w3.org/2000/svg" x="0px" y="0px" viewBox="0 0 870.1 734.4"
	xml:space="preserve">
<style type="text/css">
	.st0{fill:#E6E6E6;}
	.st1{fill:#B3B3B3;}
	.st2{fill:none;stroke:#B3B3B3;stroke-width:16;stroke-miterlimit:10;}
	.st3{fill:none;stroke:#B3B3B3;stroke-width:20;stroke-miterlimit:10;}
	.st4{fill:none;stroke:#B3B3B3;stroke-width:10;stroke-miterlimit:10;}
	.st5{fill:none;stroke:#B3B3B3;stroke-width:18;stroke-miterlimit:10;}
	.st6{fill:none;stroke:#B3B3B3;stroke-width:7.5127;stroke-miterlimit:10;}
</style>
<switch>
	<g>
		<path class="st0" d="M510.6,358.2V209.7c0-51.4,42.1-93.5,93.5-93.5h0c51.4,0,93.5,42.1,93.5,93.5v148.4h73.5v-148
			c0-91.8-75.1-167-167-167h0c-91.8,0-167,75.1-167,167v148H510.6z"/>
		<path class="st1" d="M817.9,706.2H393.3c-17.7,0-32.2-14.5-32.2-32.2V380.3c0-17.7,14.5-32.2,32.2-32.2h424.7
			c17.7,0,32.2,14.5,32.2,32.2V674C850.1,691.7,835.6,706.2,817.9,706.2z"/>
		<circle class="st0" cx="604.1" cy="489.2" r="48"/>
		<rect x="589.1" y="452.2" class="st0" width="30" height="150"/>
		<g>
			<line class="st2" x1="327.1" y1="366" x2="106.2" y2="366"/>
			<path class="st1" d="M98.1,337.7c-5.3-5-6-13-1.9-18.7c-3.9-2-7.9-3.5-12.1-4.5c-0.7,7-6.5,12.6-13.8,12.9
				c-7.3,0.2-13.4-5-14.6-11.9c-4.1,1.3-8,3.1-11.8,5.3c4.5,5.5,4.3,13.5-0.6,18.8c-5,5.3-13,6-18.7,1.9c-2,3.9-3.5,7.9-4.5,12.1
				c7,0.7,12.6,6.5,12.9,13.8c0.2,7.3-5,13.4-11.9,14.6c1.3,4.1,3.1,8,5.3,11.8c5.5-4.5,13.5-4.3,18.8,0.6c5.3,5,6,13,1.9,18.7
				c3.9,2,7.9,3.5,12.1,4.5c0.7-7,6.5-12.6,13.8-12.9s13.4,5,14.6,11.9c4.1-1.3,8-3.1,11.8-5.3c-4.5-5.5-4.3-13.5,0.6-18.8
				c5-5.3,13-6,18.7-1.9c2-3.9,3.5-7.9,4.5-12.1c-7-0.7-12.6-6.5-12.9-13.8s5-13.4,11.9-14.6c-1.3-4.1-3.1-8-5.3-11.8
				C111.4,342.8,103.4,342.6,98.1,337.7z M91,384.1c-10,10.7-26.8,11.3-37.5,1.3c-10.7-10-11.3-26.8-1.3-37.5
				c10-10.7,26.8-11.3,37.5-1.3C100.4,356.6,101,373.4,91,384.1z"/>
		</g>
		<g>
			<polyline class="st2" points="402.1,307 244.6,307 244.6,246.1 			"/>
			<path class="st1" d="M271.1,189.7c-5.3-5-6-13-1.9-18.7c-3.9-2-7.9-3.5-12.1-4.5c-0.7,7-6.5,12.6-13.8,12.9
				c-7.3,0.2-13.4-4.9-14.6-11.9c-4.1,1.3-8,3.1-11.8,5.3c4.5,5.5,4.3,13.5-0.6,18.8c-5,5.3-13,6-18.7,1.9c-2,3.9-3.5,7.9-4.5,12.1
				c7,0.7,12.6,6.5,12.9,13.8c0.2,7.3-5,13.4-11.9,14.6c1.3,4.1,3.1,8,5.3,11.8c5.5-4.5,13.5-4.3,18.8,0.6c5.3,5,6,13,1.9,18.7
				c3.9,2,7.9,3.5,12.1,4.5c0.7-7,6.5-12.6,13.8-12.9s13.4,5,14.6,11.9c4.1-1.3,8-3.1,11.8-5.3c-4.5-5.5-4.3-13.5,0.6-18.8
				c5-5.3,13-6,18.7-1.9c2-3.9,3.5-7.9,4.5-12.1c-7-0.7-12.6-6.5-12.9-13.8c-0.2-7.3,5-13.4,11.9-14.6c-1.3-4.1-3.1-8-5.3-11.8
				C284.4,194.8,276.4,194.6,271.1,189.7z M264,236.1c-10,10.7-26.8,11.3-37.5,1.3c-10.7-10-11.3-26.8-1.3-37.5
				c10-10.7,26.8-11.3,37.5-1.3C273.4,208.6,274,225.4,264,236.1z"/>
		</g>
		<g>
			<polyline class="st3" points="407.1,184.2 354.6,184.2 354.6,98.1 			"/>
			<path class="st1" d="M389.2,52.4c-3.3-6.5-1.2-14.3,4.6-18.3c-3-3.2-6.3-6-9.8-8.4c-3.1,6.4-10.4,9.6-17.3,7.4
				c-6.9-2.3-10.9-9.2-9.6-16.2c-4.3-0.2-8.6,0.1-12.9,1c2.3,6.7-0.6,14.2-7,17.5c-6.5,3.3-14.3,1.2-18.3-4.6c-3.2,3-6,6.3-8.4,9.8
				c6.4,3.1,9.6,10.4,7.4,17.3c-2.3,6.9-9.2,10.9-16.2,9.6c-0.2,4.3,0.1,8.6,1,12.9c6.7-2.3,14.2,0.6,17.5,7
				c3.3,6.5,1.2,14.3-4.6,18.3c3,3.2,6.3,6,9.8,8.4c3.1-6.4,10.4-9.6,17.3-7.4c6.9,2.3,10.9,9.2,9.6,16.2c4.3,0.2,8.6-0.1,12.9-1
				c-2.3-6.7,0.6-14.2,7-17.5c6.5-3.3,14.3-1.2,18.3,4.6c3.2-3,6-6.3,8.4-9.8c-6.4-3.1-9.6-10.4-7.4-17.3c2.3-6.9,9.2-10.9,16.2-9.6
				c0.2-4.3-0.1-8.6-1-12.9C400,61.8,392.4,58.9,389.2,52.4z M366.6,93.6c-13.1,6.6-29.1,1.4-35.7-11.6
				c-6.6-13.1-1.4-29.1,11.6-35.7c13.1-6.6,29.1-1.4,35.7,11.6C384.9,71,379.7,87,366.6,93.6z"/>
		</g>
		<g>
			<line class="st4" x1="415.1" y1="245.2" x2="369.1" y2="245.2"/>
			<path class="st1" d="M341.6,225c-3.8,1.7-8.1,0.3-10.3-3.1c-1.9,1.6-3.6,3.4-5.1,5.4c3.5,1.9,5.2,6.2,3.7,10.1
				c-1.5,3.9-5.6,6-9.5,5c-0.2,2.4-0.2,4.9,0.2,7.4c3.9-1.1,8.1,0.7,9.8,4.5c1.7,3.8,0.3,8.1-3.1,10.3c1.6,1.9,3.4,3.6,5.4,5.1
				c1.9-3.5,6.2-5.2,10.1-3.7c3.9,1.5,6,5.6,5,9.5c2.4,0.2,4.9,0.2,7.4-0.2c-1.1-3.9,0.7-8.1,4.5-9.8c3.8-1.7,8.1-0.3,10.3,3.1
				c1.9-1.6,3.6-3.4,5.1-5.4c-3.5-1.9-5.2-6.2-3.7-10.1s5.6-6,9.5-5c0.2-2.4,0.2-4.9-0.2-7.4c-3.9,1.1-8.1-0.7-9.8-4.5
				c-1.7-3.8-0.3-8.1,3.1-10.3c-1.6-1.9-3.4-3.6-5.4-5.1c-1.9,3.5-6.2,5.2-10.1,3.7c-3.9-1.5-6-5.6-5-9.5c-2.4-0.2-4.9-0.2-7.4,0.2
				C347.2,219.1,345.3,223.3,341.6,225z M364.4,239c3.4,7.6,0,16.6-7.6,20c-7.6,3.4-16.6,0-20-7.6c-3.4-7.6,0-16.6,7.6-20
				C352,228,361,231.4,364.4,239z"/>
		</g>
		<g>
			<polyline class="st5" points="327.1,429.4 169.6,429.4 169.6,490.2 			"/>
			<path class="st1" d="M220.7,504.1c-1.2-4.2-2.9-8.2-5-11.9c-5.6,4.3-13.7,3.9-18.8-1.2c-5.1-5.1-5.6-13.2-1.3-18.8
				c-3.7-2.1-7.7-3.8-12-4.9c-0.9,7-6.9,12.4-14.2,12.4c-7.3,0-13.2-5.4-14.2-12.4c-4.2,1.2-8.2,2.9-11.9,5
				c4.3,5.6,3.9,13.7-1.2,18.8s-13.2,5.6-18.8,1.3c-2.1,3.7-3.8,7.7-4.9,12c7,0.9,12.4,6.9,12.4,14.2c0,7.3-5.4,13.2-12.4,14.2
				c1.2,4.2,2.9,8.2,5,11.9c5.6-4.3,13.7-3.9,18.8,1.2c5.1,5.1,5.6,13.2,1.3,18.8c3.7,2.1,7.7,3.8,12,4.9c0.9-7,6.9-12.4,14.2-12.4
				c7.3,0,13.2,5.4,14.2,12.4c4.2-1.2,8.2-2.9,11.9-5c-4.3-5.6-3.9-13.7,1.2-18.8c5.1-5.1,13.2-5.6,18.8-1.3c2.1-3.7,3.8-7.7,4.9-12
				c-7-0.9-12.4-6.9-12.4-14.2C208.4,511.1,213.8,505.1,220.7,504.1z M196.2,518.4c0,14.7-11.9,26.6-26.5,26.6
				c-14.7,0-26.6-11.9-26.6-26.5c0-14.7,11.9-26.6,26.5-26.6C184.2,491.8,196.1,503.7,196.2,518.4z"/>
		</g>
		<g>
			<polyline class="st2" points="332.1,552.2 279.6,552.2 279.6,638.2 			"/>
			<path class="st1" d="M330.7,652.1c-1.2-4.2-2.9-8.2-5-11.9c-5.6,4.3-13.7,3.9-18.8-1.2s-5.6-13.2-1.3-18.8
				c-3.7-2.1-7.7-3.8-12-4.9c-0.9,7-6.9,12.4-14.2,12.4c-7.3,0-13.2-5.4-14.2-12.4c-4.2,1.2-8.2,2.9-11.9,5
				c4.3,5.6,3.9,13.7-1.2,18.8s-13.2,5.6-18.8,1.3c-2.1,3.7-3.8,7.7-4.9,12c7,0.9,12.4,6.9,12.4,14.2c0,7.3-5.4,13.2-12.4,14.2
				c1.2,4.2,2.9,8.2,5,11.9c5.6-4.3,13.7-3.9,18.8,1.2c5.1,5.1,5.6,13.2,1.3,18.8c3.7,2.1,7.7,3.8,12,4.9c0.9-7,6.9-12.4,14.2-12.4
				c7.3,0,13.2,5.4,14.2,12.4c4.2-1.2,8.2-2.9,11.9-5c-4.3-5.6-3.9-13.7,1.2-18.8c5.1-5.1,13.2-5.6,18.8-1.3c2.1-3.7,3.8-7.7,4.9-12
				c-7-0.9-12.4-6.9-12.4-14.2C318.4,659.1,323.8,653.1,330.7,652.1z M306.2,666.4c0,14.7-11.9,26.6-26.5,26.6
				c-14.7,0-26.6-11.9-26.6-26.5c0-14.7,11.9-26.6,26.5-26.6C294.2,639.8,306.1,651.7,306.2,666.4z"/>
		</g>
		<g>
			<line class="st6" x1="340.2" y1="485.1" x2="289.2" y2="485.1"/>
			<path class="st1" d="M294.6,497c1-1.6,1.8-3.3,2.3-5c-3-0.5-5.2-3.2-5.1-6.3c0.1-3.1,2.5-5.6,5.5-5.9c-0.4-1.8-1.1-3.5-1.9-5.2
				c-2.5,1.7-5.9,1.4-8-0.8s-2.2-5.7-0.2-8.1c-1.6-1-3.3-1.8-5-2.3c-0.5,3-3.2,5.2-6.3,5.1s-5.6-2.5-5.9-5.5
				c-1.8,0.4-3.5,1.1-5.2,1.9c1.7,2.5,1.4,5.9-0.8,8c-2.3,2.1-5.7,2.2-8.1,0.2c-1,1.6-1.8,3.3-2.3,5c3,0.5,5.2,3.2,5.1,6.3
				c-0.1,3.1-2.5,5.6-5.5,5.9c0.4,1.8,1.1,3.5,1.9,5.2c2.5-1.7,5.9-1.4,8,0.8c2.1,2.3,2.2,5.7,0.2,8.1c1.6,1,3.3,1.8,5,2.3
				c0.5-3,3.2-5.2,6.3-5.1c3.1,0.1,5.6,2.5,5.9,5.5c1.8-0.4,3.5-1.1,5.2-1.9c-1.7-2.5-1.4-5.9,0.8-8
				C288.9,495.1,292.3,495.1,294.6,497z M283,493.4c-4.6,4.3-11.8,4-16.1-0.6c-4.3-4.6-4-11.8,0.6-16.1c4.6-4.3,11.8-4,16.1,0.6
				C287.9,481.9,287.6,489.1,283,493.4z"/>
		</g>
	</g>
</switch>
</svg>
