<svg viewBox="6 156 600 600" aria-hidden="true" aria-label="Hosts status" aria-haspopup="true" title="host"><path d="M473.3,163.2H128.7c-7,0-12.8,5.8-12.8,12.8v560.2c0,7,5.8,12.8,12.8,12.8h344.7c7,0,12.8-5.8,12.8-12.8V176
C486.1,168.9,480.4,163.2,473.3,163.2z M300.8,618c-18.9,0-34.1-15.2-34.1-34.1c0-18.9,15.2-34.1,34.1-34.1s34.1,15.2,34.1,34.1
C334.9,602.8,319.6,618,300.8,618z M406.8,415.6c0,6.3-5.2,11.5-11.5,11.5H206.2c-6.3,0-11.5-5.2-11.5-11.5V395
c0-6.3,5.2-11.5,11.5-11.5h189.1c6.3,0,11.5,5.2,11.5,11.5V415.6z M406.8,315.2c0,6.3-5.2,11.5-11.5,11.5H206.2
c-6.3,0-11.5-5.2-11.5-11.5v-20.7c0-6.3,5.2-11.5,11.5-11.5h189.1c6.3,0,11.5,5.2,11.5,11.5V315.2z M442.8,704.6H162.2v-497h280.6
V704.6z"></path></svg>