<?xml version="1.0" encoding="utf-8"?>
<!-- Generator: Adobe Illustrator 22.1.0, SVG Export Plug-In . SVG Version: 6.00 Build 0)  -->
<svg version="1.1" id="Calque_1" xmlns="http://www.w3.org/2000/svg" xmlns:xlink="http://www.w3.org/1999/xlink" x="0px" y="0px"
	 viewBox="0 0 512 512" style="enable-background:new 0 0 512 512;" xml:space="preserve">
<style type="text/css">
	.st0{clip-path:url(#SVGID_2_);fill:#37404D;}
	.st1{fill:#37404D;}
</style>
<g>
	<defs>
		<rect id="SVGID_1_" width="512" height="512"/>
	</defs>
	<clipPath id="SVGID_2_">
		<use xlink:href="#SVGID_1_"  style="overflow:visible;"/>
	</clipPath>
	<path class="st0" d="M352.6,410.6V262.1v-83.2l-96.5-96.5h-77.2V24.4h173.8v96.5h96.5v289.6H352.6z M256.1,109.6l69.2,69.2h-69.2
		V109.6z M63,487.8V101.6h173.8v96.5h96.5v63.9v225.7H63z M372,32.4l69.2,69.2H372V32.4z M468.5,101.6L372,5.1H159.6v77.2H43.7
		v424.8h308.9v-77.2h115.8V101.6z"/>
</g>
<rect x="193" y="283.8" transform="matrix(0.7238 -0.69 0.69 0.7238 -198.5572 243.2041)" class="st1" width="23" height="171.5"/>
<rect x="205.2" y="322.5" transform="matrix(0.6271 -0.7789 0.7789 0.6271 -133.7141 388.6846)" class="st1" width="267.8" height="23"/>
</svg>
