<svg viewBox="6 156 600 600" color="#88B917" aria-hidden="true" alt="poller icon" aria-haspopup="true" aria-label="Pollers status"><path d="M416.8,675.1c-6.4,0-27.3,0-31,0c-3.6,0-6.4,2-6.4,7.3l0,19.4H101.6V209.7h277.9V398
 c0,7.2,5.8,8.7,8.9,8.7c4.1-0.1,16.2-0.1,23.6-0.1c4.7,0,12,1.1,12-8.1V176c0-7-5.7-12.8-12.8-12.8H66.9c-7,0-12.8,5.7-12.8,12.8
 v559.6c0,7,5.7,12.8,12.8,12.8h344.3c7,0,12.8-5.7,12.8-12.8v-52.9C423.7,677.6,421.5,675.1,416.8,675.1z"></path><path d="M344.7,416.4v-21.7c0-6.3-5.2-11.4-11.4-11.4H144.4c-6.3,0-11.4,5.2-11.4,11.4v21.7
 c0,6.3,5.2,11.4,11.4,11.4h188.9C339.5,427.8,344.7,422.6,344.7,416.4z"></path><path d="M204.8,583.4c0,18.8,15.2,34,34,34s34-15.2,34-34c0-18.8-15.2-34-34-34S204.8,564.6,204.8,583.4z"></path><path d="M144.4,327.5h188.9c6.3,0,11.4-5.2,11.4-11.4v-21.7c0-6.3-5.2-11.4-11.4-11.4H144.4
 c-6.3,0-11.4,5.2-11.4,11.4V316C132.9,322.3,138.1,327.5,144.4,327.5z"></path><path d="M462.4,558.6c0,7.2-5.8,13-13,13c-7.2,0-13-5.8-13-13c0-7.1,5.8-13,13-13
 C456.6,545.6,462.4,551.4,462.4,558.6z"></path><path d="M437.7,536.4c-5.2,0-9.6-3.7-10.6-8.7l0,0L414.6,465l-0.2-2.1c0-19.1,15.4-34.5,34.5-34.5l0,0
 c19,0,34.4,15.4,34.5,34.5l0,0l-0.2,2.1l-12.4,62.6c-1,5.1-5.4,8.7-10.6,8.7l0,0H437.7L437.7,536.4z M446.6,514.7h4.6l10.4-52.6
 c-0.4-6.7-5.9-12-12.7-12l0,0c-6.8,0-12.3,5.2-12.8,11.9l0,0L446.6,514.7L446.6,514.7z"></path><path d="M337.1,624.2c-3.2-5.5-4.7-11.5-4.7-17.3l0,0c0-11.9,6.2-23.5,17.3-29.8l0,0l1.9-0.9l60.4-20.5
 c4.9-1.7,10.2,0.4,12.8,4.9l0,0l11.2,19.4c2.6,4.5,1.6,10.1-2.2,13.6l0,0l-48,42l-1.9,1.3c-5.3,3-11.2,4.5-17.1,4.5l0,0
 C355,641.3,343.4,635.2,337.1,624.2L337.1,624.2z M354.1,606.9c0,2.2,0.5,4.3,1.8,6.4l0,0c2.3,4.1,6.6,6.3,11,6.3l0,0
 c1.9,0,3.8-0.4,5.7-1.3l0,0l40.2-35.3l-2.3-4l-50.8,17.3C356.1,598.7,354.1,602.7,354.1,606.9L354.1,606.9z"></path><path d="M515.3,635.7l5.4-9.4l7.1-8.1l-7.1,8.1L515.3,635.7l-1.7-1.2l-48-42c-3.9-3.4-4.8-9.1-2.2-13.6l0,0
 l11.2-19.4c2.6-4.5,8-6.5,12.9-4.8l0,0l60.4,20.5l1.9,0.9c11,6.4,17.2,17.9,17.2,29.9l0,0c0,5.8-1.5,11.8-4.6,17.3l0,0
 c-6.4,10.9-17.9,17.1-29.8,17.1l0,0C526.7,640.3,520.8,638.9,515.3,635.7L515.3,635.7z M532.5,618.7c4.4,0,8.7-2.3,11.1-6.3l0,0
 c1.2-2,1.7-4.2,1.7-6.4l0,0c0-4.2-2.1-8.2-5.6-10.6l0,0L488.9,578l-2.3,4l40.3,35.4C528.7,618.3,530.6,618.7,532.5,618.7
 L532.5,618.7z"></path><path d="M362.9,558.2c-5.9-0.8-10.1-6.2-9.4-12.1l0,0c3.1-23.7,14.7-44.7,31.7-59.8l0,0c4.4-4,11.3-3.6,15.3,0.9
 l0,0c4,4.4,3.5,11.3-0.9,15.3l0,0c-13.2,11.8-22.3,28-24.6,46.4l0,0v0c-0.7,5.5-5.4,9.5-10.8,9.5l0,0
 C363.9,558.3,363.4,558.3,362.9,558.2L362.9,558.2z"></path><path d="M412.2,647.8c-5.5-2.3-8.1-8.7-5.8-14.2l0,0c2.3-5.5,8.6-8.1,14.2-5.8l0,0c8.9,3.7,18.6,5.8,28.9,5.8l0,0
 c10.9,0,21.1-2.3,30.5-6.5l0,0h0c5.4-2.4,11.8,0,14.3,5.5l0,0c2.4,5.5,0,11.9-5.5,14.3l0,0c-12,5.4-25.4,8.3-39.3,8.3l0,0
 C436.3,655.2,423.6,652.6,412.2,647.8L412.2,647.8z"></path><path d="M523.7,548.3c-2.7-19.7-13.1-37-28-48.7l0,0h0c-4.7-3.7-5.6-10.5-1.9-15.2l0,0c3.7-4.7,10.5-5.5,15.2-1.8
 l0,0c19.2,15.1,32.6,37.4,36.1,62.8l0,0c0.8,5.9-3.4,11.4-9.3,12.2l0,0c-0.5,0.1-1,0.1-1.5,0.1l0,0
 C529.1,557.7,524.5,553.7,523.7,548.3L523.7,548.3z"></path></svg>