<svg focusable="false" viewBox="284 -284 600 600" aria-hidden="true" aria-haspopup="true" aria-label="Services status"><path d="M449.3,276v-18l15.6-9l-15.6,9V276c-6.5,0-12.4-3.5-15.6-9l0,0l-136-235.4c-3.2-5.6-3.2-12.5,0-18l0,0
 l136-235.4c3.2-5.6,9.1-9,15.6-9l0,0h271.8c6.5,0,12.4,3.4,15.6,9l0,0l136,235.4c3.2,5.6,3.2,12.4,0,18l0,0L736.7,267
 c-3.2,5.6-9.2,9-15.6,9l0,0H449.3L449.3,276z M708,235.3L830.8,22.6L708-190.2H462.4L339.5,22.6l122.8,212.7H708L708,235.3z"></path><path d="M471.3,22.6c0.1-62.9,51-113.8,113.9-113.9l0,0c62.9,0.1,113.9,51,113.9,113.9l0,0
 c0,62.9-51,113.8-113.9,113.9l0,0C522.3,136.5,471.3,85.5,471.3,22.6L471.3,22.6z M508.5,22.6c0,42.4,34.3,76.6,76.7,76.7l0,0
 c42.4,0,76.6-34.3,76.7-76.7l0,0c-0.1-42.4-34.4-76.6-76.7-76.7l0,0C542.8-54,508.5-19.7,508.5,22.6L508.5,22.6z"></path></svg>