<?xml version="1.0" encoding="utf-8"?>
<!-- Generator: Adobe Illustrator 18.1.1, SVG Export Plug-In . SVG Version: 6.00 Build 0)  -->
<svg version="1.1" id="Calque_1" xmlns="http://www.w3.org/2000/svg" xmlns:xlink="http://www.w3.org/1999/xlink" x="0px" y="0px"
	 viewBox="6 156 600 600" enable-background="new 6 156 600 600" xml:space="preserve">
<g display="none">
	<path display="inline" fill="#231F20" d="M21.8,717.8c-5.5,0-10.5-2.9-13.3-7.7l0,0c-2.7-4.7-2.8-10.6,0-15.3l0,0l283-492.2
		c2.7-4.8,7.9-7.7,13.3-7.7l0,0c5.5,0,10.6,2.9,13.3,7.7l0,0l283,492.2c2.7,4.7,2.7,10.6,0,15.3l0,0c-2.7,4.8-7.8,7.7-13.3,7.7l0,0
		L21.8,717.8L21.8,717.8z M48.4,687.1h512.8L304.8,241.2L48.4,687.1L48.4,687.1z"/>
	<path display="inline" fill="#231F20" d="M214.2,620.7l147.2-147.2c8.8-8.8,20.8-11.1,26.8-5l0,0c6,6,3.8,18-5,26.8l0,0
		L235.9,642.5c-8.8,8.8-20.8,11-26.8,5l0,0C203.2,641.5,205.4,629.5,214.2,620.7L214.2,620.7z"/>
	<path display="inline" fill="#231F20" d="M242.1,473.4l147.2,147.2c8.8,8.8,11.1,20.8,5,26.8l0,0c-6,6-18,3.8-26.8-5l0,0
		L220.3,495.2c-8.8-8.8-11-20.8-5-26.8l0,0C221.3,462.4,233.3,464.7,242.1,473.4L242.1,473.4z"/>
</g>
<g display="none">
	<path display="inline" fill="#231F20" d="M22.4,717.8c-5.5,0-10.5-2.9-13.3-7.7l0,0c-2.7-4.7-2.8-10.6,0-15.3l0,0l283-492.2
		c2.7-4.8,7.9-7.7,13.3-7.7l0,0c5.5,0,10.6,2.9,13.3,7.7l0,0l283,492.2c2.7,4.7,2.7,10.6,0,15.3l0,0c-2.7,4.8-7.8,7.7-13.3,7.7l0,0
		L22.4,717.8L22.4,717.8z M49,687.1h512.8L305.4,241.2L49,687.1L49,687.1z"/>
	<path display="inline" fill="#231F20" d="M290,506.7V364.2c0-8.5,6.9-15.4,15.4-15.4l0,0c8.5,0,15.4,6.9,15.4,15.4l0,0v142.5
		c0,8.5-6.9,15.4-15.4,15.4l0,0C296.8,522.1,290,515.2,290,506.7L290,506.7z"/>
	<path display="inline" fill="#231F20" d="M305.4,650.9c-13.7,0.1-27.1-5-37.7-14.4l0,0c-11.4-10-17.7-24.9-17.5-40.5l0,0
		c-0.1-14.5,6.7-28.3,17.7-37.8l0,0c10.4-9,23.6-14.4,37.5-14.4l0,0v15.4v15.4c-6.4,0.1-11.5,2-17.3,6.8l0,0
		c-5.3,4.9-6.9,8.7-7.1,14.6l0,0c0.2,8.6,2.4,13,7.1,17.4l0,0c5.8,4.9,10.7,6.7,17.3,6.8l0,0c6.7-0.1,11.7-1.9,17.4-6.8l0,0
		c4.7-4.4,6.7-8.5,7-17.3l0,0c-0.2-6.1-1.6-9.6-6.9-14.5l0,0c-5.8-4.9-11-6.8-17.5-6.9l0,0v-15.4v-15.4c13.9-0.1,27.2,5.3,37.6,14.4
		l0,0c11.3,9.4,17.8,23.5,17.6,37.8l0,0c0.2,15.4-5.8,30.6-17.5,40.5l0,0c-10.5,9.3-23.8,14.4-37.3,14.4l0,0
		C305.6,650.9,305.5,650.9,305.4,650.9L305.4,650.9z"/>
</g>
<g display="none">
	<g display="inline">
		<path fill="#231F20" d="M51.2,744C32.7,743.9,18,729.1,18,710.7l0,0V519.4c0-18.4,14.9-33.1,33.2-33.1l0,0h191.4v17.1v16v-16
			v-17.1c18.3,0,33.1,14.8,33.1,33.1l0,0v191.3c0,18.3-14.7,33.2-33.1,33.3l0,0H51.2L51.2,744z M241.3,709.6v-189h-189v189H241.3
			L241.3,709.6z"/>
	</g>
	<g display="inline">
		<path fill="#231F20" d="M371.6,424.7c-18.4-0.1-33.2-14.9-33.2-33.2l0,0V200.2c0.1-18.4,14.9-33.1,33.2-33.2l0,0H563v17.2v15.9
			v-15.9V167c18.3,0,33.1,14.8,33.1,33.2l0,0v191.3c-0.1,18.3-14.7,33.2-33.1,33.2l0,0H371.6L371.6,424.7z M561.8,390.3V201.4h-189
			v188.9L561.8,390.3L561.8,390.3z"/>
	</g>
	<g display="inline">
		<path fill="#231F20" d="M51.2,424.7C32.7,424.6,18,409.8,18,391.4l0,0V200.2C18,181.8,32.8,167,51.2,167l0,0h191.3v17.2v15.9
			v-15.9V167c18.4,0,33.1,14.8,33.1,33.2l0,0v191.3c0,18.3-14.6,33.2-33.1,33.2l0,0H51.2L51.2,424.7z M241.3,390.3V201.4h-189v188.9
			L241.3,390.3L241.3,390.3z"/>
	</g>
	<path display="inline" fill="#231F20" d="M129.6,504.5v-96.8c0-9.5,7.7-17.2,17.2-17.2l0,0c9.5,0,17.2,7.7,17.2,17.2l0,0v96.8
		c0,9.5-7.7,17.1-17.2,17.1l0,0C137.3,521.6,129.6,514,129.6,504.5L129.6,504.5z"/>
	<path display="inline" fill="#231F20" d="M258.8,313c-9.6,0-17.2-7.7-17.2-17.2l0,0c0-9.5,7.7-17.2,17.2-17.2l0,0h96.8
		c9.5,0,17.2,7.7,17.2,17.2l0,0c0,9.5-7.7,17.2-17.2,17.2l0,0H258.8L258.8,313z"/>
	<path display="inline" fill="#231F20" d="M258.8,632.3c-9.5,0-17.2-7.7-17.2-17.1l0,0c0-9.5,7.7-17.2,17.2-17.2l0,0h96.8
		c52.2-0.1,94.4-42.3,94.5-94.5l0,0v-96c0-9.4,7.7-17.1,17.2-17.1l0,0c9.4,0,17.1,7.7,17.1,17.1l0,0v96
		c0,71.1-57.7,128.8-128.8,128.8l0,0L258.8,632.3L258.8,632.3z"/>
</g>
<g display="none">
	<g display="inline">
		<path fill="#231F20" d="M99.7,685c-15.1,0-27.1-12.1-27.2-27.1l0,0V548c0.1-15,12.2-27.1,27.2-27.1l0,0h109.9v18v9.1v-9.1v-18
			c15.1,0.1,27.1,12.1,27.1,27.1l0,0v109.8c-0.1,15-12,27.1-27.1,27.1l0,0L99.7,685L99.7,685z M200.7,649v-92.2h-92.3V649L200.7,649
			L200.7,649z"/>
	</g>
	<path display="inline" fill="#231F20" d="M454.9,576.7h3.6c24.4,0,44.1-19.7,44.2-44.1l0,0v-30v-66v-53.2
		c-0.1-24.4-19.8-44.1-44.2-44.2l0,0l-52.7,0c-9.5,0-17.2-7.7-17.2-17.2l0,0c0-9.5,7.7-17.2,17.2-17.2l0,0h52.7
		c43.4,0,78.5,35.2,78.5,78.6l0,0v53.2v66v30c0,43.3-35.1,78.5-78.5,78.5l0,0h-3.6v0c-9.5,0-17.2-7.7-17.2-17.2l0,0
		C437.7,584.4,445.4,576.7,454.9,576.7L454.9,576.7z"/>
	<path display="inline" fill="#231F20" d="M227.4,620.9c-11.8,0-21.3-8-21.3-18l0,0c0-10,9.5-18,21.3-18l0,0h83.1
		c11.8,0,21.3,8,21.3,18l0,0c0,9.9-9.5,18-21.3,18l0,0H227.4L227.4,620.9z"/>
	<g display="inline">
		<g>
			<path fill="#231F20" d="M329.2,685c-15.1,0-27.1-12.1-27.2-27.1l0,0V548c0.1-15,12.2-27.1,27.2-27.1l0,0H439v18v9.1v-9.1v-18
				c15,0.1,27.1,12.1,27.1,27.1l0,0v109.8c0,14.9-12,27.1-27.1,27.1l0,0H329.2L329.2,685z M430.2,649v-92.2h-92.3V649H430.2
				L430.2,649z"/>
		</g>
		<path fill="#231F20" d="M309.6,676.4c-7-7-7-18.4,0-25.4l0,0l122.6-122.6c7-7,18.4-7,25.4,0l0,0c7,7,7,18.3,0,25.4l0,0L335,676.4
			c-3.5,3.5-8.1,5.3-12.7,5.3l0,0C317.6,681.7,313.1,679.9,309.6,676.4L309.6,676.4z"/>
	</g>
	<g display="inline">
		<g>
			<path fill="#231F20" d="M112.4,455.9c-4.7,0-9.4-1.9-12.8-5.3l0,0c-3.3-3.3-5.3-8-5.3-12.8l0,0V249.5c0-4.8,1.9-9.4,5.3-12.8l0,0
				c3.4-3.4,8.1-5.3,12.8-5.3l0,0h301.7c4.8,0,9.4,1.9,12.8,5.3l0,0c3.4,3.4,5.3,8,5.3,12.8l0,0v188.3c0,4.8-1.9,9.4-5.3,12.8l0,0
				c-3.4,3.5-8,5.3-12.8,5.3l0,0H112.4L112.4,455.9z M414.1,437.8v-18.1V437.8L414.1,437.8z M130.5,419.7H396V267.6H130.5
				L130.5,419.7L130.5,419.7z"/>
		</g>
		<path fill="#231F20" d="M113.6,341c-10,0-18.1-8.1-18.1-18.1l0,0c0-10,8.1-18.1,18.1-18.1l0,0h299.8c10,0,18.1,8.1,18.1,18.1l0,0
			c0,10-8.1,18.1-18.1,18.1l0,0H113.6L113.6,341z"/>
	</g>
</g>
<g display="none">
	<path display="inline" fill="#231F20" d="M443.2,725.3L281.7,563.9c-5.3-5.3-9.3-11.6-11.9-18.4l0,0c-6.5-2.3-12.6-6-17.4-11l0,0
		l-14.2-14c-8.6-8.7-13.4-20.6-13.3-32.7l0,0c0-1.8,0.1-4.2,0.4-6.3l0,0c0.5-4,1.5-7.8,2.9-11.4l0,0L130,371.9l-30.7-9.4
		c-9.4-2.7-17-8.5-22.6-16.1l0,0l-50.3-70.2c-5.4-7.5-8-16.2-8-24.9l0,0c0-11,4.2-22,12.5-30.4l0,0l37-37
		c8.3-8.1,19.2-12.4,30.3-12.4l0,0c8.8,0,17.6,2.7,25.1,8.1l0,0l70.2,50.4c7.4,5.4,13.2,13,16,22.3l0,0l7.9,25.9L318.1,379
		c6.4-3,13.4-4.6,20.4-4.6l0,0c12.3,0,24.5,4.9,33.3,13.8l0,0l12.8,12.9c5.4,5.2,9.3,11.6,11.5,18.3l0,0c6.8,2.6,13.1,6.6,18.2,11.9
		l0,0l161.5,161.3c10.3,10.3,15.5,24.1,15.4,37.6l0,0c0,15.4-6.4,30.6-18,42.4l0,0l-50.1,50.1c-11.3,11.3-26.5,17.9-42.4,17.9l0,0
		v-17.1v-17.1c6.2,0,13-2.7,18.2-8l0,0l50-50c5.6-5.7,8.1-12.4,8.1-18.2l0,0c-0.1-5.3-1.8-9.8-5.4-13.5l0,0L390.1,455.3
		c-2.8-2.8-6.3-4.5-10.6-5.1l0,0c-8.3-1-14.7-7.8-15.1-16.2l0,0c-0.2-3.5-1.4-6.3-3.8-8.7l0,0l-13.1-13.1c-2.5-2.4-5.2-3.6-9-3.7
		l0,0c-3.1-0.1-6.5,1.2-10.1,4.1l0,0c0,0.1-0.2,0.2-1.5,1.2l0,0c-6.8,5.8-16.9,5.4-23.2-0.9l0,0L190,299.3l-4.3-7.1l-9.1-30.1
		c-0.5-1.5-1.7-3.3-3.3-4.4l0,0l-70.1-50.3c-1.7-1.2-3.5-1.7-5.2-1.7l0,0c-2.2,0-4.5,0.9-6.2,2.5l0,0l-36.8,36.9
		c-1.6,1.6-2.5,3.9-2.5,6.2l0,0c0,1.8,0.5,3.5,1.6,5l0,0l50.2,69.9c1.4,1.9,3.2,3,4.8,3.5l0,0l35.1,10.8l7.1,4.2l110.4,110.6
		c6.3,6.3,6.6,16.2,1,23l0,0c-1.9,2.3-3.1,5.1-3.5,8.5l0,0c0,0-0.1,0.1-0.1,1l0,0c0.1,3.5,1.2,6.2,3.4,8.6l0,0l14.1,13.9
		c2.4,2.3,4.8,3.4,7.9,3.6l0,0c8.3,0.4,15.2,6.8,16.2,15.1l0,0c0.5,4,2.2,7.7,5.2,10.8l0,0L467.3,701c3.5,3.5,8,5.3,13.4,5.4l0,0
		v17.1v17.1c-0.1,0-0.1,0-0.2,0l0,0C466.6,740.6,453.1,735.1,443.2,725.3L443.2,725.3z"/>
	<g display="inline">
		<path fill="#231F20" d="M165.7,726.1c-12.9,0-26.1-2.8-39.5-8.2l0,0l-3.5-1.5c-1.8-0.5-3.8-1.2-5.9-2.2l0,0
			c-5-2.4-8.6-7.1-9.5-12.5l0,0c-1-5.5,0.8-11.1,4.8-15.1l0,0l47.3-47.2l-16.6-16.7l-46.8,46.8c-4.9,4.8-12.2,6.4-18.5,3.7l0,0
			l-8.6-3.5c-4.4-1.7-7.8-5.2-9.5-9.5l0,0c-5-12.5-7.4-25.5-7.4-38.2l0,0c0-25.5,9.6-50.4,28.1-68.8l0,0c18.3-18.3,43-28.1,68.6-28
			l0,0c4.1,0,8.2,0.3,12.2,0.8l0,0c4.9-4.9,13.2-13.3,26.9-27l0,0l46.8-46.7c6.7-6.7,17.5-6.7,24.2,0l0,0l2.9,2.9
			c6.3,6.2,6.8,16.3,1,23.1l0,0c-1.9,2.3-3.2,5.1-3.5,8.5l0,0c0,0-0.1,0.1-0.1,1l0,0c0.1,3.5,1.1,6.2,3.4,8.5l0,0l14.1,13.9
			c2.4,2.3,4.8,3.4,7.9,3.5l0,0c8.3,0.4,15.2,6.8,16.2,15.1l0,0c0.5,4.1,2.2,7.7,5.2,10.7l0,0l2.2,2.2l-12,12.2l12-12.2
			c3.2,3.2,5.1,7.6,5.1,12.1l0,0c0,4.6-1.9,8.9-5.1,12.2l0,0c-23.6,23.6-43.2,43.1-52.7,52.6l0,0c0.4,3.6,0.6,7.2,0.6,10.8l0,0
			c0,26.7-11,51.8-29.5,70.4l0,0c-16.7,16.8-38,26.1-60.2,26.1l0,0C166.1,726.1,165.9,726.1,165.7,726.1L165.7,726.1z M165.7,691.9
			c13.7-0.2,24.9-4.6,36.6-16l0,0c12.2-12.4,19.5-29.1,19.5-46.2l0,0c0-4.4-0.5-8.8-1.4-13.2l0,0c-1.2-5.7,0.5-11.6,4.7-15.7l0,0
			c0.5-0.5,20.5-20.5,48.1-48l0,0c-1.3-2.3-2.5-4.7-3.4-7.2l0,0c-6.5-2.3-12.6-6-17.4-11l0,0l-14.2-14c-4.1-4.1-7.3-8.9-9.5-14.1
			l0,0l-16.8,16.8c-26,25.9-32,32.1-33.5,33.5l0,0c-4.1,3.8-9.7,5.4-15.1,4.3l0,0c-5.2-1-10.1-1.6-14.7-1.6l0,0
			c-17,0-32.7,6.3-44.4,18l0,0c-11.7,11.7-18.1,27.7-18.1,44.6l0,0c0,2.8,0.2,5.6,0.5,8.4l0,0l34.5-34.5c4.5-3.8,8.7-10.5,23-11.7
			l0,0c0.1,0,0.3,0,0.4,0l0,0c0.8,0,2.3,0,5.2,0.7l0,0c3.6,0.9,6.7,2.9,9,5.6l0,0l27.7,27.6c5.9,6,8.9,13.8,8.9,21.5l0,0
			c0,7.5-2.8,15-8.6,21.1l0,0l-30.5,30.5C159.4,691.6,162.7,691.9,165.7,691.9L165.7,691.9z"/>
		<path fill="#231F20" d="M392.6,457.9l-2.6-2.5c-2.8-2.9-6.3-4.6-10.6-5.1l0,0c-8.3-1-14.7-7.8-15.1-16.2l0,0
			c-0.2-3.5-1.4-6.3-3.8-8.7l0,0l-13-13.1c-2.5-2.4-5.3-3.6-9-3.7l0,0c-3.2,0-6.5,1.2-10.1,4.1l0,0c0,0-0.2,0.1-1.4,1.2l0,0
			c-6.8,5.8-17,5.4-23.3-0.9l0,0l-2.9-2.9c-6.7-6.7-6.7-17.5,0-24.2l0,0c32.2-32.2,60.5-60.5,72.4-72.5l0,0
			c-0.5-4.2-0.8-8.4-0.8-12.5l0,0c0-25.5,9.8-50.1,28.1-68.4l0,0c18.4-18.3,43.3-28.1,68.8-28.1l0,0c12.8,0,25.7,2.5,38.2,7.4l0,0
			l8,3.2c5.3,2.2,9.3,6.9,10.4,12.6l0,0c1.1,5.7-0.7,11.6-4.9,15.6l0,0l-48.3,46.9l17.8,17.9l43.4-43.4c4.1-4.1,10-5.8,15.6-4.6l0,0
			c1.4,0.3,2.8,0.8,4.1,1.4l0,0l1.9,0.4c5.7,1.2,10.4,5.2,12.5,10.6l0,0c4.8,12.3,7.2,25.2,7.2,38l0,0c0,25.4-9.6,50.4-28.1,68.7
			l0,0c-18.5,18.7-44,30.1-71,30.1l0,0c-3.4,0-6.8-0.2-10.3-0.6l0,0c-9.1,9-27.3,27.2-49.3,49.2l0,0c-3.3,3.3-7.7,5-12.1,5l0,0
			C400.3,462.8,395.9,461.2,392.6,457.9L392.6,457.9z M403.4,422.8c25.8-25.7,44-43.9,44.8-44.7l0,0c4.1-4.1,10.1-5.8,15.7-4.5l0,0
			c4.2,0.9,8.4,1.4,12.4,1.4l0,0c17.2,0,34.4-7.5,46.8-20l0,0c11.7-11.7,18-27.7,18-44.6l0,0c0-1.4-0.1-2.8-0.1-4.2l0,0l-33.3,33.3
			c-2.4,2.3-5.2,4.3-8.7,5.8l0,0l-4.3,1.2l-0.6,0.1l-2.4,0.2c-9.9-0.2-15.7-5.1-19.9-9l0,0l-29.5-29.5c-4.5-4.3-7.6-11.1-7.5-17.6
			l0,0c0.1-8.9,4.4-15.2,8.8-19.6l0,0l32.8-31.8c-2.3-0.2-4.6-0.4-6.9-0.4l0,0c-17,0.1-32.9,6.4-44.7,18l0,0
			c-11.6,11.8-18,27.3-18,44.2l0,0c0,4.9,0.5,9.7,1.6,14.5l0,0c1.3,5.7-0.4,11.6-4.4,15.7l0,0c-0.9,1-20,20.1-46.9,46.9l0,0
			c5.4,2.3,10.5,5.7,14.7,10l0,0l12.9,12.9c5.4,5.2,9.2,11.6,11.5,18.3l0,0C398.7,420.3,401.1,421.5,403.4,422.8L403.4,422.8z"/>
	</g>
</g>
<g display="none">
	<path display="inline" fill="#231F20" d="M382.8,558.3l-88.6-88.6c-3.1-3.1-4.9-7.4-4.9-11.8l0,0V280.8c0-9.3,7.5-16.7,16.7-16.7
		l0,0c9.2,0,16.7,7.5,16.7,16.7l0,0V451l83.7,83.7c6.5,6.5,6.5,17.1-0.1,23.7l0,0c-3.2,3.3-7.5,4.9-11.8,4.9l0,0
		C390.3,563.2,386,561.6,382.8,558.3L382.8,558.3z"/>
	<path display="inline" fill="#231F20" d="M129.7,478.5c-9.3,0-16.7-7.4-16.7-16.7l0,0c0-9.3,7.5-16.7,16.7-16.7l0,0h43.7
		c9.2,0,16.7,7.5,16.7,16.7l0,0c0,9.3-7.5,16.7-16.7,16.7l0,0H129.7L129.7,478.5z"/>
	<path display="inline" fill="#231F20" d="M438,478.5c-9.3,0-16.7-7.4-16.7-16.7l0,0c0-9.3,7.5-16.7,16.7-16.7l0,0h43.8
		c9.2,0,16.7,7.5,16.7,16.7l0,0c0,9.3-7.5,16.7-16.7,16.7l0,0H438L438,478.5z"/>
	<path display="inline" fill="#231F20" d="M287.9,636.7V593c0-9.2,7.5-16.7,16.7-16.7l0,0c9.2,0,16.7,7.5,16.7,16.7l0,0v43.7
		c0,9.3-7.5,16.7-16.7,16.7l0,0C295.5,653.5,287.9,646,287.9,636.7L287.9,636.7z"/>
	<path display="inline" fill="#231F20" d="M23.6,454.4C23.6,298.4,150,172,306,172l0,0c156,0,282.4,126.4,282.4,282.4l0,0
		c0,156-126.4,282.4-282.4,282.4l0,0C150,736.8,23.6,610.4,23.6,454.4L23.6,454.4z M57,454.4c0.2,137.5,111.5,248.8,249,249l0,0
		c137.5-0.2,248.8-111.4,249-249l0,0c-0.2-137.5-111.5-248.8-249-249l0,0C168.5,205.6,57.2,316.9,57,454.4L57,454.4z"/>
</g>
<g display="none">
	<path display="inline" fill="#231F20" d="M67.2,743.4c-4.4,0-8.7-1.8-11.8-4.8l0,0c-3.1-3.1-4.9-7.4-4.9-11.8l0,0V615.5l0.6-4.3
		c24.2-85.5,129.7-89.9,141.4-97.2l0,0c25.6-11.4,35.7-25.6,40.5-39.5l0,0c-20.3-20.2-36.3-46.5-47-75l0,0
		c-16.2-18.4-26.7-38.7-26.9-59.7l0,0c-0.4-12.3,5.2-24.1,13.6-31.8l0,0c6.7-78,64.4-141.4,138.3-142l0,0h0.6c1.2,0,2.1,0.1,2.6,0.2
		l0,0c74.5,1.8,132,67,136.8,146.5l0,0c5.8,7.3,9.4,17,9.1,27.1l0,0c-0.2,17.9-8.2,34.9-20,50.9l0,0c-11.1,33.4-29.3,64.4-53.4,87
		l0,0c4.7,13.7,14.9,27.8,40.3,39.1l0,0c10.8,7.2,117.1,8.4,141.5,94.2l0,0l-16.2,4.3l16.2-4.3l0.6,4.3v111.3
		c0,4.4-1.7,8.6-4.9,11.8l0,0c-3.1,3.1-7.3,4.8-11.8,4.8l0,0H67.2L67.2,743.4z M83.9,710h451.7v-92.5c-15.8-55.3-92.8-59.7-121.9-70
		l0,0c-40.4-17-58-47.4-62.3-72.4l0,0c-1.1-6.1,1.2-12.2,5.9-16.1l0,0c22.3-17.9,41.5-48.3,51.8-81.2l0,0l2.7-5.2
		c10.1-12.8,15-25.7,14.8-32.8l0,0c-0.3-4.8-0.8-5.2-3-7.4l0,0c-3.6-3.1-5.7-7.5-5.9-12.3l0,0c-1.8-68.1-49.5-120.2-104.8-120.6l0,0
		c-1,0-1.7,0-2.2-0.1l0,0c-54.9,0-102.6,51.1-105.3,118.2l0,0c-0.2,5.8-3.4,11-8.3,13.8l0,0c-4.2,3-4.2,2.5-4.7,8.4l0,0
		c-0.3,8.7,6.4,24.7,20.3,39.4l0,0l3.5,5.7c10.1,28.7,27,54.8,46.4,71.5l0,0c4.5,3.9,6.6,9.9,5.5,15.8l0,0
		c-4.3,25.1-22,55.3-62.3,72.4l0,0c-28.4,10.2-106.2,17.3-121.9,73.1l0,0V710L83.9,710z"/>
</g>
<g display="none">
	<g display="inline">
		<path fill="#231F20" d="M96.3,677c-44.6-0.1-80.7-36.2-80.8-80.7l0,0v-11.5V338.4v-11.6c0-44.5,36.2-80.6,80.8-80.6l0,0h420.1
			c44.4,0.1,80.5,36.1,80.6,80.6l0,0v11.5v246.4v11.5c-0.1,44.6-36.2,80.7-80.6,80.7l0,0H96.3L96.3,677z M49.9,326.8v11.6v246.3
			v11.5c0,25.6,20.7,46.2,46.4,46.2l0,0h420.1c25.3,0,46.1-20.7,46.1-46.2l0,0v-11.5V338.4v-11.5c0-25.4-20.9-46.1-46.1-46.1l0,0
			c-0.4,0-0.9,0-1.3,0l0,0H96.3C70.6,280.7,50,301.4,49.9,326.8L49.9,326.8z"/>
		<path fill="#231F20" d="M289.8,494.6c-5.7-7.6-4.1-18.4,3.5-24.1l0,0l259.6-193.3c7.6-5.7,18.4-4.1,24,3.5l0,0
			c5.7,7.7,4.1,18.4-3.5,24.1l0,0L313.9,498.1c-3.1,2.3-6.7,3.4-10.3,3.4l0,0C298.4,501.5,293.2,499.2,289.8,494.6L289.8,494.6z"/>
		<path fill="#231F20" d="M17.8,559.3c-4.8-8.2-1.9-18.8,6.2-23.6l0,0l132.9-77.3c8.2-4.8,18.7-2,23.5,6.2l0,0
			c4.8,8.2,2,18.8-6.2,23.6l0,0L41.4,565.5c-2.7,1.6-5.7,2.4-8.7,2.4l0,0C26.8,567.8,21.1,564.8,17.8,559.3L17.8,559.3z"/>
		<path fill="#231F20" d="M293.3,498.1L33.8,304.8c-7.6-5.7-9.2-16.5-3.5-24.1l0,0c5.7-7.6,16.5-9.2,24.1-3.5l0,0l259.6,193.3
			c7.6,5.6,9.2,16.5,3.5,24l0,0c-3.4,4.6-8.6,6.9-13.8,6.9l0,0C300,501.5,296.4,500.4,293.3,498.1L293.3,498.1z"/>
	</g>
	<path display="inline" fill="#231F20" d="M571,565.5l-132.8-77.3c-8.2-4.8-11-15.3-6.2-23.6l0,0c4.8-8.2,15.3-11,23.5-6.2l0,0
		l132.8,77.3c8.2,4.8,11,15.3,6.2,23.6l0,0c-3.2,5.5-9,8.6-14.9,8.6l0,0C576.7,567.8,573.7,567.1,571,565.5L571,565.5z"/>
</g>
<path display="none" fill="#231F20" d="M376.4,733.6v-18.8v-16.9v-1.9v18.8V733.6c-19.8-0.1-35.8-16-35.8-35.8l0,0v-80h-70.2v80
	c-0.1,19.8-16,35.7-35.8,35.8l0,0h-98.5c-19.9,0-35.8-16-35.9-35.8l0,0V499.1h-49c-14.5,0.1-27.6-8.8-32.9-21.8l0,0
	c-2.1-4.7-3-9.7-3-14.1l0,0c0.1-9.4,3.7-18.4,10.5-25.2l0,0l254.3-254.4c7-7.2,16.4-10.7,25.5-10.7l0,0c9.1,0,18.3,3.6,25.3,10.5
	l0,0l254.7,254.7c6.5,6.7,10.2,15.6,10.3,25.1l0,0c0,4.6-0.9,9.2-2.7,13.5l0,0c-5.5,13.8-18.8,22.4-33.1,22.4l0,0h-49.1v198.7
	c0,19.8-16,35.8-35.8,35.8l0,0H376.4L376.4,733.6z M473.5,695.9V480.3c0-5,2-9.8,5.5-13.3l0,0c3.5-3.5,8.4-5.6,13.3-5.6l0,0h63.4
	L305.7,211.4L55.6,461.5h63.5c5,0,9.8,2,13.3,5.6l0,0c3.5,3.5,5.5,8.3,5.5,13.3l0,0v215.6h94.8V599c0-5,2-9.8,5.5-13.3l0,0
	c3.5-3.5,8.3-5.5,13.3-5.5l0,0h107.8c5,0,9.8,2,13.3,5.5l0,0c3.5,3.5,5.5,8.3,5.5,13.3l0,0v96.9H473.5L473.5,695.9z"/>
<g display="none">
	<path display="inline" fill="#231F20" stroke="#231F20" stroke-width="1.3365" stroke-linecap="round" stroke-linejoin="round" d="
		M348.9,571.3h234.8c0-153.7-124.6-278.3-278.3-278.3C151.7,293,27.2,417.6,27.2,571.3h239.4"/>
	<g display="inline">
		
			<ellipse transform="matrix(0.8603 0.5097 -0.5097 0.8603 303.7119 -110.4249)" fill="#FFFFFF" cx="353.4" cy="499" rx="33.4" ry="123.8"/>
		<path fill="#231F20" d="M308,625.8c-1.6,0-2.7-0.3-3.2-0.3l0,0l0,0c-1.6-0.1-2.9-0.4-4.1-0.6l0,0c-2-0.4-4.2-0.9-6.8-1.6l0,0
			c-1.3-0.4-2-0.7-2.7-1l0,0c-2.6-1-5.1-2.2-6.8-3.1l0,0l-0.6-0.3l-2.4-1.5l0.3,0.1c-2.4-1.4-4.8-3.2-6.9-5l0,0
			c-0.9-0.8-1.5-1.4-1.9-1.7l0,0c-2.1-1.9-3.9-4-5.9-6.6l0,0c0,0-0.5-0.6-1.4-1.8l0,0c-1.4-2-2.7-4.2-3.9-6.5l0,0
			c-0.4-0.7-0.8-1.7-1.4-2.8l0,0c-1-2.3-1.8-4.5-2.4-6.6l0,0c-0.4-1.4-0.8-2.7-1-3.9l0,0c-0.4-2-0.7-4-0.9-5.8l0,0
			c-0.2-1.8-0.3-3.5-0.3-5.2l0,0c-0.1-0.5-0.2-1.3-0.2-2.4l0,0c0-0.4,0.1-0.7,0.1-1l0,0h-0.1c0.1-0.9,0.2-1.6,0.3-2.1l0,0l0,0
			c0,0,0-0.1,0-0.1l0,0c0.2-2.5,0.6-4.9,1-6.8l0,0c0.1-0.6,0.3-1.6,0.6-2.7l0,0c0.8-3,1.9-5.9,3.1-8.5l0,0l0.4-1
			c0.1,0,0.4-1.3,2-4.1l0,0c0.4-0.7,0.8-1.3,1.1-1.7l0,0c0.3-0.5,0.6-1,0.9-1.5l0,0l107.6-151.2v0l0,0l0.8-1.3l1.9-2.6
			c0.5-0.7,1-1.3,1.6-1.9l0,0c7.5-8.5,18.2-13.1,29-13.1l0,0c6.7,0,13.5,1.8,19.6,5.4l0,0l-8,13.8l8.1-13.7c12.2,7.1,19,20,19,33.3
			l0,0c0,3.9-0.6,7.9-1.8,11.9l0,0c-0.2,1.1-0.6,2.2-1.1,3.2l0,0l-1.5,3.3l-0.2,0.5c-0.1,0.2-0.2,0.4-0.4,0.7l0,0l-79.6,167.5
			c-0.2,0.5-0.5,1-0.8,1.5l0,0c-0.2,0.4-0.5,1-0.8,1.6l0,0c-6.7,11.4-17,19.3-28,23.4l0,0c-0.4,0.2-1.1,0.4-1.9,0.7l0,0
			c-2.5,0.9-5.1,1.5-7.6,2l0,0c-1.2,0.2-2.4,0.4-3.8,0.6l0,0c-2,0.2-4.1,0.3-6.2,0.3l0,0c0,0,0,0-2,0.1l0,0c0,0,0,0-0.3,0l0,0
			C308.3,625.8,308.2,625.8,308,625.8L308,625.8z M308.8,593.9C308.8,593.9,308.8,593.9,308.8,593.9L308.8,593.9
			C308.7,593.9,308.7,593.9,308.8,593.9L308.8,593.9z M306.2,593.4c1.2,0.1,1.9,0.3,2.6,0.4l0,0c0,0,0.2,0.1,0.1,0.1l0,0
			c0.3,0,0.7-0.1,1.8-0.1l0,0c0.8,0,1.7,0,2.3-0.1l0,0c0.7-0.1,1.2-0.2,1.8-0.3l0,0c1.1-0.2,2.2-0.5,3.3-0.9l0,0c0,0,0.1,0,0.7-0.3
			l0,0c4.9-1.9,8.9-5,11.5-9.2l0,0c0.1-0.3,0.3-0.9,0.7-1.6l0,0c0.3-0.7,0.7-1.3,1.1-1.9l0,0l79-166.3c0.2-0.4,0.4-0.8,0.6-1.2l0,0
			l0.3-0.6c0-0.2,0.1-0.3,0.2-0.5l0,0c0.3-0.8,0.5-1.7,0.5-2.6l0,0c0-2.4-1.2-4.6-3.3-5.8l0,0l0,0c-1.2-0.7-2.4-1-3.5-1l0,0
			c-1.9,0-3.8,0.8-5.1,2.3l0,0l-0.9,1.2l-0.3,0.4h0c-0.1,0.2-0.3,0.5-0.5,0.7l0,0L292.1,556.6c-0.3,0.6-0.7,1.2-1.1,1.7l0,0
			c-0.2,0.3-0.3,0.5-0.5,0.7l0,0c-0.2,0.4-0.4,0.9-0.7,1.5l0,0l-0.4,0.8c-0.5,1.2-1,2.4-1.3,3.7l0,0c0,0,0,0-0.2,1l0,0
			c-0.2,1.1-0.4,2.1-0.5,3.7l0,0l0,0.1c0,0.3,0,0.7,0,1l0,0c0,0.9,0,1.7,0.1,2.7l0,0c0.1,0.8,0.2,1.5,0.4,2.2l0,0
			c0.2,0.7,0.3,1.2,0.4,1.6l0,0c0.3,1.2,0.7,2.2,1,2.9l0,0c0.1,0.2,0.3,0.6,0.7,1.2l0,0c0.5,0.9,1,1.9,1.5,2.6l0,0
			c0.1,0.1,0.4,0.6,0.8,1l0,0c0.7,1,1.5,1.8,2.3,2.6l0,0c0.4,0.4,0.5,0.5,0.8,0.7l0,0c0.7,0.7,1.7,1.3,3.4,2.5l0,0l0.2,0.1
			c1.1,0.6,2.2,1.1,3,1.4l0,0c1.1,0.4,1.6,0.6,1.5,0.6l0,0C304.3,593,305.2,593.2,306.2,593.4L306.2,593.4z"/>
	</g>
	<path display="inline" fill="#FFFFFF" d="M295.2,358.1v-37.6c0-5.4,4.4-9.9,9.9-9.9l0,0c5.4,0,9.9,4.5,9.9,9.9l0,0v37.6
		c0,5.4-4.4,9.9-9.9,9.9l0,0C299.6,368,295.2,363.6,295.2,358.1L295.2,358.1z"/>
</g>
<g display="none">
	<g display="inline">
		<g>
			<path fill="#84BD00" d="M359.6,406.2c-2.5-2.1-5.7-3.2-8.8-3.2v7.6c1.2,0,2.3,0.3,3.4,1v0c0.6,0.4,1.4,0.4,1.9-0.1l3.5-3.5
				C360.1,407.5,360.2,406.7,359.6,406.2"/>
			<path fill="#43B02A" d="M346.4,412.5c1.2-1.2,2.8-1.8,4.4-1.8V403c-3.5,0-7.1,1.3-9.8,4L346.4,412.5L346.4,412.5z"/>
			<path fill="#00A499" d="M346.4,412.5L341,407l-9.5,8.6c-0.3,0.3-0.5,0.7-0.5,1.1h10h3.6C344.6,415.2,345.2,413.7,346.4,412.5"/>
			<path fill="#009FDF" d="M341,426.6l5.4-5.4c-1.2-1.2-1.8-2.8-1.8-4.4H341h-4H331c0,0.4,0.2,0.8,0.5,1.1L341,426.6
				C341,426.6,341,426.6,341,426.6L341,426.6L341,426.6C341,426.6,341,426.6,341,426.6z"/>
			<path fill="#0072CE" d="M346.4,421.2L346.4,421.2l-5.4,5.4h0c2.7,2.7,6.2,4.1,9.8,4.1V423C349.2,423,347.6,422.4,346.4,421.2"/>
			<path fill="#10069F" d="M359.5,425.6l-3.5-3.5c-0.5-0.5-1.4-0.5-1.9-0.1v0c-1,0.7-2.2,1-3.4,1v7.6c3.1,0,6.3-1.1,8.8-3.2
				C360.2,426.9,360.1,426.2,359.5,425.6"/>
			<path fill="#333F48" d="M385,419.7c-0.7,1.2-1.9,2.3-3.6,2.3c0,0,0,0-0.1,0c-2.7,0-4.2-2.1-4.2-4.8c0-2.7,1.4-4.8,4.2-4.8h0
				c1.7,0,2.9,1,3.6,2.2l2.7-2c-1.4-2.2-3.4-3.4-6.3-3.4c-4.8,0-7.9,3.4-7.9,8.1c0,4.6,3.2,8.1,7.9,8.1c0,0,0,0,0,0
				c2.8,0,4.9-1.3,6.3-3.4L385,419.7z"/>
			<path fill="#333F48" d="M418.5,424.8h3.7l0-8.8c0-3.9-3.1-7-7-7c-1.6,0-3,0.5-4.2,1.4c-0.7-0.8-1.7-1.4-2.8-1.4v6.7
				c0,0.1,0,0.2,0,0.3h0v8.8h3.7V416c0-1.8,1.5-3.3,3.3-3.3c1.8,0,3.3,1.5,3.3,3.3h0L418.5,424.8L418.5,424.8z"/>
			<path fill="#333F48" d="M434,421.3c-0.5,0.3-1.1,0.5-2.1,0.5c-1.4,0-2.4-0.9-2.4-2.5V413h3.7v-3.7h-3.7h-0.1l0,0
				c0-2-1.6-3.7-3.7-3.7V416l0,0v3.4c0,3.8,2.2,5.8,5.8,5.8c1.5,0,2.7-0.4,3.4-0.9L434,421.3z"/>
			<path fill="#333F48" d="M441.1,410.7c-0.7-1-1.8-1.7-3.1-1.7v10.4l0,0v5.4h3.7V417h0c0-2.4,2-4.4,4.4-4.4V409
				C444.2,409,442.5,409.6,441.1,410.7"/>
			<path fill="#333F48" d="M393.3,415.6c0.1-2.2,1.6-3.6,3.8-3.6c2.2,0,3.5,1.5,3.5,3.6H393.3z M404.3,418.2v-1.3
				c0-4.3-2.3-7.9-7.1-7.9c-4.5,0-7.6,3.4-7.6,8.1c0,0.4,0,0.7,0.1,1.1c0.5,4.1,3.4,6.9,7.8,6.9c0,0,0,0,0,0c2.8,0,4.9-1,6.4-2.8
				l-2.6-2.1c-0.7,1-2,1.8-3.8,1.8c-2.6,0-4.1-1.4-4.2-3.8h7.3L404.3,418.2L404.3,418.2z"/>
			<path fill="#333F48" d="M451.5,415.6c0.1-2.2,1.6-3.6,3.8-3.6c2.2,0,3.4,1.5,3.5,3.6H451.5z M462.5,418.2v-1.3
				c0-4.3-2.3-7.9-7.1-7.9c-4.5,0-7.6,3.4-7.6,8.1c0,0.4,0,0.7,0.1,1.1c0.5,4.1,3.4,6.9,7.8,6.9c0,0,0,0,0,0c2.8,0,4.9-1,6.4-2.8
				l-2.6-2.1c-0.7,1-2,1.8-3.9,1.8c-2.6,0-4.1-1.4-4.2-3.8h7.3L462.5,418.2L462.5,418.2z"/>
		</g>
		<path fill="#333F48" d="M494.8,424.8h3.7l0-8.8c0-3.9-3.1-7-7-7c-1.6,0-3,0.5-4.2,1.4c-0.7-0.8-1.7-1.4-2.8-1.4v15.8h3.7V416
			c0-1.8,1.5-3.3,3.3-3.3c1.8,0,3.3,1.5,3.3,3.3h0V424.8L494.8,424.8z"/>
	</g>
	<path display="inline" fill="#333F48" d="M481.4,416.2c0-0.1,0-0.1,0-0.2c0-0.2-0.1-0.4-0.1-0.6c0-0.1,0-0.1,0-0.2
		c-0.1-0.2-0.1-0.4-0.2-0.6c0,0,0-0.1,0-0.1c-0.1-0.2-0.2-0.4-0.2-0.7c0,0,0,0,0,0c-0.1-0.2-0.2-0.5-0.3-0.7c0,0,0,0,0,0
		c-1.4-2.5-4-4.2-7.1-4.2h0c-3.1,0-5.7,1.7-7.1,4.2c0,0,0,0,0,0c-0.1,0.2-0.2,0.5-0.3,0.7c0,0,0,0,0,0c-0.1,0.2-0.2,0.4-0.2,0.7
		c0,0,0,0.1,0,0.1c-0.1,0.2-0.1,0.4-0.2,0.6c0,0.1,0,0.1,0,0.2c0,0.2-0.1,0.4-0.1,0.6c0,0.1,0,0.1,0,0.2c0,0.3,0,0.6,0,0.8
		c0,0.3,0,0.6,0,0.8c0.1,0.5,0.2,1.1,0.3,1.6c0.1,0.3,0.2,0.5,0.3,0.7c1.2,2.9,4.1,5,7.5,5h0c3.6,0,6.7-2.4,7.8-5.7
		c0.2-0.8,0.4-1.6,0.4-2.4C481.4,416.7,481.4,416.5,481.4,416.2z M473.3,422c-2.7,0-5-2.2-5-5c0-2.7,2.2-5,5-5c2.7,0,5,2.2,5,5
		C478.2,419.8,476,422,473.3,422z"/>
</g>
<g>
	<path fill="#84BD00" d="M585.1,247.9c-50.6-42-112.7-63-174.9-63v151.8c23.2,0,46.4,6.6,66.6,19.6v0c11.1,8.1,27.7,8.8,38.5-1.9
		l68.5-68.5C596.2,273.5,598.1,258.9,585.1,247.9"/>
	<path fill="#43B02A" d="M323.4,372.7c24-23.9,55.4-35.9,86.8-35.9V184.9c-70.3,0-140.6,26.8-194.2,80.4L323.4,372.7L323.4,372.7z"
		/>
	<path fill="#00A499" d="M323.4,372.7L216,265.3L27.3,436.7c-6,5.8-9.7,13.8-9.7,22.8H216h71.4C287.4,428.1,299.4,396.6,323.4,372.7
		"/>
	<path fill="#009FDF" d="M216.1,653.6l107.3-107.3c-24-23.9-36-55.4-36-86.7H216h-80.4H17.5c0,8.9,3.7,16.8,9.6,22.6l188.7,171.3
		C215.9,653.5,216,653.6,216.1,653.6L216.1,653.6L216.1,653.6C216.1,653.7,216.1,653.6,216.1,653.6z"/>
	<path fill="#0072CE" d="M323.4,546.3L323.4,546.3L216,653.6h0.1c53.6,53.6,123.8,80.5,194.1,80.5V582.2
		C378.8,582.2,347.4,570.2,323.4,546.3"/>
	<path fill="#10069F" d="M583.9,633.2l-68.7-68.7c-10.8-10.8-27.3-10-38.5-1.9v-0.1c-20.2,13-43.4,19.7-66.6,19.7V734
		c62.1,0,124.3-21.1,174.9-63.1C598.1,660,596.2,645.5,583.9,633.2"/>
</g>
</svg>
