<?xml version="1.0" standalone="no"?>
<!DOCTYPE svg PUBLIC "-//W3C//DTD SVG 1.1//EN" "http://www.w3.org/Graphics/SVG/1.1/DTD/svg11.dtd" >
<svg xmlns="http://www.w3.org/2000/svg">
<metadata>Generated by IcoMoon</metadata>
<defs>
<font id="ico-fill-centreon" horiz-adv-x="1024">
<font-face units-per-em="1024" ascent="960" descent="-64" />
<missing-glyph horiz-adv-x="1024" />
<glyph unicode="&#x20;" horiz-adv-x="512" d="" />
<glyph unicode="&#xe600;" d="M585.216 251.221h400.725c0 262.315-212.651 474.965-474.965 474.965s-474.795-212.651-474.795-474.965h408.576z" />
<glyph unicode="&#xe601;" d="M641.938 345.571c-59.477-100.388-129.648-168.761-156.732-152.715s-0.824 110.435 58.653 210.823c59.477 100.388 129.648 168.761 156.732 152.715s0.824-110.435-58.653-210.823z" />
<glyph unicode="&#xe602;" d="M515.413 158.208c-2.731 0-4.608 0.512-5.461 0.512v0 0c-2.731 0.171-4.949 0.683-6.997 1.024v0c-3.413 0.683-7.168 1.536-11.605 2.731v0c-2.219 0.683-3.413 1.195-4.608 1.707v0c-4.437 1.707-8.704 3.755-11.605 5.291v0l-1.024 0.512-4.096 2.56 0.512-0.171c-4.096 2.389-8.192 5.461-11.776 8.533v0c-1.536 1.365-2.56 2.389-3.243 2.901v0c-3.584 3.243-6.656 6.827-10.069 11.264v0c0 0-0.853 1.024-2.389 3.072v0c-2.389 3.413-4.608 7.168-6.656 11.093v0c-0.683 1.195-1.365 2.901-2.389 4.779v0c-1.707 3.925-3.072 7.68-4.096 11.264v0c-0.683 2.389-1.365 4.608-1.707 6.656v0c-0.683 3.413-1.195 6.827-1.536 9.899v0c-0.341 3.072-0.512 5.973-0.512 8.875v0c-0.171 0.853-0.341 2.219-0.341 4.096v0c0 0.683 0.171 1.195 0.171 1.707v0h-0.171c0.171 1.536 0.341 2.731 0.512 3.584v0 0c0 0 0 0.171 0 0.171v0c0.341 4.267 1.024 8.363 1.707 11.605v0c0.171 1.024 0.512 2.731 1.024 4.608v0c1.365 5.12 3.243 10.069 5.291 14.507v0l0.683 1.707c0.171 0 0.683 2.219 3.413 6.997v0c0.683 1.195 1.365 2.219 1.877 2.901v0c0.512 0.853 1.024 1.707 1.536 2.56v0l183.637 258.048 1.365 2.219 3.243 4.437c0.853 1.195 1.707 2.219 2.731 3.243v0c12.8 14.507 31.061 22.357 49.493 22.357v0c11.435 0 23.040-3.072 33.451-9.216v0l-13.653-23.552 13.824 23.381c20.821-12.117 32.427-34.133 32.427-56.832v0c0-6.656-1.024-13.483-3.072-20.309v0c-0.341-1.877-1.024-3.755-1.877-5.461v0l-2.56-5.632-0.341-0.853c-0.171-0.341-0.341-0.683-0.683-1.195v0l-135.851-285.867c-0.341-0.853-0.853-1.707-1.365-2.56v0c-0.341-0.683-0.853-1.707-1.365-2.731v0c-11.435-19.456-29.013-32.939-47.787-39.936v0c-0.683-0.341-1.877-0.683-3.243-1.195v0c-4.267-1.536-8.704-2.56-12.971-3.413v0c-2.048-0.341-4.096-0.683-6.485-1.024v0c-3.413-0.341-6.997-0.512-10.581-0.512v0c0 0 0 0-3.413-0.171v0c0 0 0 0-0.512 0v0c-0.341-0.171-0.512-0.171-0.853-0.171v0zM516.779 212.651c0 0 0 0 0 0v0c-0.171 0-0.171 0 0 0v0zM512.341 213.504c2.048-0.171 3.243-0.512 4.437-0.683v0c0 0 0.341-0.171 0.171-0.171v0c0.512 0 1.195 0.171 3.072 0.171v0c1.365 0 2.901 0 3.925 0.171v0c1.195 0.171 2.048 0.341 3.072 0.512v0c1.877 0.341 3.755 0.853 5.632 1.536v0c0 0 0.171 0 1.195 0.512v0c8.363 3.243 15.189 8.533 19.627 15.701v0c0.171 0.512 0.512 1.536 1.195 2.731v0c0.512 1.195 1.195 2.219 1.877 3.243v0l134.827 283.819c0.341 0.683 0.683 1.365 1.024 2.048v0l0.512 1.024c0 0.341 0.171 0.512 0.341 0.853v0c0.512 1.365 0.853 2.901 0.853 4.437v0c0 4.096-2.048 7.851-5.632 9.899v0 0c-2.048 1.195-4.096 1.707-5.973 1.707v0c-3.243 0-6.485-1.365-8.704-3.925v0l-2.048-2.731c-0.171-0.341-0.512-0.853-0.853-1.195v0l-182.613-256.853c-0.512-1.024-1.195-2.048-1.877-2.901v0c-0.341-0.512-0.512-0.853-0.853-1.195v0c-0.341-0.683-0.683-1.536-1.195-2.56v0l-0.683-1.365c-0.853-2.048-1.707-4.096-2.219-6.315v0c0 0 0 0-0.341-1.707v0c-0.341-1.877-0.683-3.584-0.853-6.315v0-0.171c0-0.512 0-1.195 0-1.707v0c0-1.536 0-2.901 0.171-4.608v0c0.171-1.365 0.341-2.56 0.683-3.755v0c0.341-1.195 0.512-2.048 0.683-2.731v0c0.512-2.048 1.195-3.755 1.707-4.949v0c0.171-0.341 0.512-1.024 1.195-2.048v0c0.853-1.536 1.707-3.243 2.56-4.437v0c0.171-0.171 0.683-1.024 1.365-1.707v0c1.195-1.707 2.56-3.072 3.925-4.437v0c0.683-0.683 0.853-0.853 1.365-1.195v0c1.195-1.195 2.901-2.219 5.803-4.267v0l0.341-0.171c1.877-1.024 3.755-1.877 5.12-2.389v0c1.877-0.683 2.731-1.024 2.56-1.024v0c1.365-0.171 2.901-0.512 4.608-0.853v0z" />
<glyph unicode="&#xe603;" d="M493.568 615.083v64.171c0 9.216 7.509 16.896 16.896 16.896v0c9.216 0 16.896-7.68 16.896-16.896v0-64.171c0-9.216-7.509-16.896-16.896-16.896v0c-9.387 0-16.896 7.509-16.896 16.896v0z" />
<glyph unicode="&#xe604;" d="M988.331 803.157c-86.357 71.68-192.341 107.52-298.496 107.52v-259.072c39.595 0 79.189-11.264 113.664-33.451v0c18.944-13.824 47.275-15.019 65.707 3.243l116.907 116.907c21.163 21.163 24.405 46.080 2.219 64.853z" />
<glyph unicode="&#xe605;" d="M541.696 590.165c40.96 40.789 94.549 61.269 148.139 61.269v259.243c-119.979 0-239.957-45.739-331.435-137.216l183.296-183.296z" />
<glyph unicode="&#xe606;" d="M541.696 590.165l-183.296 183.296-322.048-292.523c-10.24-9.899-16.555-23.552-16.555-38.912h460.459c0 53.589 20.48 107.349 61.44 148.139z" />
<glyph unicode="&#xe607;" d="M358.571 110.763l183.125 183.125c-40.96 40.789-61.44 94.549-61.44 147.968h-460.629c0-15.189 6.315-28.672 16.384-38.571l322.048-292.352c0.171 0 0.341-0.171 0.512-0.171v0 0c0-0.171 0 0 0 0z" />
<glyph unicode="&#xe608;" d="M541.696 293.888v0l-183.125-183.125c91.477-91.477 211.285-137.387 331.264-137.387v259.243c-53.589 0-107.179 20.48-148.139 61.269z" />
<glyph unicode="&#xe609;" d="M986.283 145.579l-117.248 117.248c-18.432 18.432-46.592 17.067-65.707 3.243v0.171c-34.475-22.187-74.069-33.621-113.664-33.621v-259.072c105.984 0 212.139 36.011 298.496 107.691 22.357 18.603 19.115 43.349-1.877 64.341z" />
<glyph unicode="&#xe60a;" d="M804.181-13.141l-297.131 297.131-297.301-297.131v891.563h594.432z" />
<glyph unicode="&#xe60b;" d="M507.051 754.517l47.104-145.237h152.747l-123.563-89.771 47.104-145.067-123.392 89.6-123.563-89.6 47.104 145.067-123.392 89.771h152.576z" />
<glyph unicode="&#xe60c;" d="M784.213-24.576l-277.333 277.163-277.163-277.163c-8.021-8.192-20.309-10.581-30.72-6.144v0c-10.581 4.437-17.408 14.677-17.408 26.112v0 891.563c0 7.509 3.072 14.848 8.192 19.968v0c5.291 5.291 12.629 8.363 20.139 8.363v0h594.432c7.339 0 14.677-3.072 19.968-8.363v0c5.291-5.291 8.192-12.459 8.192-19.968v0-891.563c0-11.435-6.827-21.675-17.408-26.112v0c-3.413-1.365-7.168-2.048-10.752-2.048v0c-7.509-0.171-14.848 2.731-20.139 8.192v0zM804.181-4.608v0zM527.019 312.491l248.832-248.832v794.965h-537.771v-794.965l249.003 248.832c5.461 5.632 12.8 8.363 19.968 8.363v0c7.168 0 14.336-2.731 19.968-8.363v0z" />
<glyph unicode="&#xe60d;" d="M26.965 1.195c-9.387 0-17.92 4.949-22.699 13.141v0c-4.608 8.021-4.779 18.091 0 26.112v0l482.987 840.021c4.608 8.192 13.483 13.141 22.699 13.141v0c9.387 0 18.091-4.949 22.699-13.141v0l482.987-840.021c4.608-8.021 4.608-18.091 0-26.112v0c-4.608-8.192-13.312-13.141-22.699-13.141v0h-965.973zM72.363 53.589v0z" />
<glyph unicode="&#xe60e;" d="M355.328 166.912l251.221 251.221c15.019 15.019 35.499 18.944 45.739 8.533v0c10.24-10.24 6.485-30.72-8.533-45.739v0l-251.392-251.221c-15.019-15.019-35.499-18.773-45.739-8.533v0c-10.069 10.24-6.315 30.72 8.704 45.739v0z" />
<glyph unicode="&#xe60f;" d="M402.944 418.304l251.221-251.221c15.019-15.019 18.944-35.499 8.533-45.739v0c-10.24-10.24-30.72-6.485-45.739 8.533v0l-251.221 251.221c-15.019 15.019-18.773 35.499-8.533 45.739v0c10.24 10.24 30.72 6.315 45.739-8.533v0z" />
<glyph unicode="&#xe610;" d="M27.989 1.195c-9.387 0-17.92 4.949-22.699 13.141v0c-4.608 8.021-4.779 18.091 0 26.112v0l482.987 840.021c4.608 8.192 13.483 13.141 22.699 13.141v0c9.387 0 18.091-4.949 22.699-13.141v0l482.987-840.021c4.608-8.021 4.608-18.091 0-26.112v0c-4.608-8.192-13.312-13.141-22.699-13.141v0h-965.973zM73.387 53.589v0z" />
<glyph unicode="&#xe611;" d="M484.693 361.472v243.2c0 14.507 11.776 26.283 26.283 26.283v0c14.507 0 26.283-11.776 26.283-26.283v0-243.2c0-14.507-11.776-26.283-26.283-26.283v0c-14.677 0-26.283 11.776-26.283 26.283v0z" />
<glyph unicode="&#xe612;" d="M510.976 115.371c-23.381-0.171-46.251 8.533-64.341 24.576v0c-19.456 17.067-30.208 42.496-29.867 69.12v0c-0.171 24.747 11.435 48.299 30.208 64.512v0c17.749 15.36 40.277 24.576 64 24.576v0-52.565c-10.923-0.171-19.627-3.413-29.525-11.605v0c-9.045-8.363-11.776-14.848-12.117-24.917v0c0.341-14.677 4.096-22.187 12.117-29.696v0c9.899-8.363 18.261-11.435 29.525-11.605v0c11.435 0.171 19.968 3.243 29.696 11.605v0c8.021 7.509 11.435 14.507 11.947 29.525v0c-0.341 10.411-2.731 16.384-11.776 24.747v0c-9.899 8.363-18.773 11.605-29.867 11.776v0 52.565c23.723 0.171 46.421-9.045 64.171-24.576v0c19.285-16.043 30.379-40.107 30.037-64.512v0c0.341-26.283-9.899-52.224-29.867-69.12v0c-17.92-15.872-40.619-24.576-63.659-24.576v0c-0.341 0.171-0.512 0.171-0.683 0.171v0z" />
<glyph unicode="&#xe613;" d="M27.989 1.195c-9.387 0-17.92 4.949-22.699 13.141v0c-4.608 8.021-4.779 18.091 0 26.112v0l482.987 840.021c4.608 8.192 13.483 13.141 22.699 13.141v0c9.387 0 18.091-4.949 22.699-13.141v0l482.987-840.021c4.608-8.021 4.608-18.091 0-26.112v0c-4.608-8.192-13.312-13.141-22.699-13.141v0h-965.973zM73.387 53.589v0z" />
<glyph unicode="&#xe614;" d="M510.976 115.371c-23.381-0.171-46.251 8.533-64.341 24.576v0c-19.456 17.067-30.208 42.496-29.867 69.12v0c-0.171 24.747 11.435 48.299 30.208 64.512v0c17.749 15.36 40.277 24.576 64 24.576v0-52.565c-10.923-0.171-19.627-3.413-29.525-11.605v0c-9.045-8.363-11.776-14.848-12.117-24.917v0c0.341-14.677 4.096-22.187 12.117-29.696v0c9.899-8.363 18.261-11.435 29.525-11.605v0c11.435 0.171 19.968 3.243 29.696 11.605v0c8.021 7.509 11.435 14.507 11.947 29.525v0c-0.341 10.411-2.731 16.384-11.776 24.747v0c-9.899 8.363-18.773 11.605-29.867 11.776v0 52.565c23.723 0.171 46.421-9.045 64.171-24.576v0c19.285-16.043 30.379-40.107 30.037-64.512v0c0.341-26.283-9.899-52.224-29.867-69.12v0c-17.92-15.872-40.619-24.576-63.659-24.576v0c-0.341 0.171-0.512 0.171-0.683 0.171v0z" />
<glyph unicode="&#xe615;" d="M565.077 447.829c-20.48-19.968-30.037-30.208-29.867-45.909v-24.405c0-14.848-12.117-26.965-26.965-26.965s-26.965 12.117-26.965 26.965v24.405c0.171 42.667 28.501 66.901 46.080 84.309 18.944 18.944 29.525 30.379 29.867 54.101-1.707 33.963-16.725 44.715-44.885 46.592-32.597-2.731-37.205-6.144-48.299-40.619-3.413-14.507-18.091-23.381-32.597-19.968s-23.381 18.091-19.968 32.597c8.875 49.664 50.176 84.651 100.693 81.92 25.941 0 51.2-8.704 69.803-26.795 18.603-17.92 29.184-44.373 29.013-73.899 0.341-45.397-26.965-74.069-45.909-92.331z" />
<glyph unicode="&#xe616;" d="M512.341 76.971h438.613c34.475 0.171 62.805 28.16 62.805 62.805v642.901c0 34.645-28.16 62.805-62.805 62.805h-877.909c-34.645 0-62.635-27.989-62.805-62.805v-642.901c0.171-34.645 28.16-62.635 62.805-62.805h372.224zM946.688 144.043h-869.376v634.368h869.376v-634.368z" />
<glyph unicode="&#xe617;" d="M848.555 729.941h-673.109c-27.819 0-50.176-19.627-50.347-44.032v-451.243c0-24.405 22.528-44.032 50.347-44.032h673.109c27.648 0 50.347 19.797 50.347 44.032v451.243c0 24.405-22.528 44.032-50.347 44.032zM623.957 367.104c0-5.973-2.389-11.605-6.656-15.872s-9.899-6.656-15.872-6.656h-387.072c-5.973 0-11.776 2.389-15.872 6.656-4.267 4.267-6.656 10.069-6.656 16.043v281.259c0 5.973 2.389 11.776 6.656 16.043 4.096 4.267 10.069 6.656 15.872 6.656h386.901c5.973 0 11.776-2.389 15.872-6.656s6.656-10.069 6.656-16.043v-281.429z" />
<glyph unicode="&#xe618;" d="M601.259 671.232h-386.901c-5.973 0-11.776-2.389-15.872-6.656-4.267-4.096-6.656-9.899-6.656-16.043v-281.429c0-5.803 2.389-11.776 6.656-16.043 4.096-4.096 10.069-6.656 15.872-6.656h386.901c5.973 0 11.776 2.389 15.872 6.656 4.267 4.267 6.656 9.899 6.656 15.872v281.6c0 5.973-2.56 11.776-6.656 16.043-4.096 4.096-9.899 6.656-15.872 6.656z" />
<glyph unicode="&#xe619;" d="M388.779 199.509h475.989c7.68 0 14.848 3.072 20.309 8.533s8.533 12.629 8.533 20.309v357.717c0 7.509-3.072 15.019-8.533 20.309s-12.8 8.533-20.309 8.533h-475.989c-7.509 0-15.019-3.072-20.309-8.533-5.461-5.291-8.363-12.629-8.363-20.309v-357.888c0-7.509 3.072-14.848 8.363-20.309 5.291-5.291 12.629-8.363 20.309-8.363z" />
<glyph unicode="&#xe61a;" d="M832.512 557.227c-4.096 4.096-9.899 6.485-15.701 6.485h-380.245c-5.803 0-11.605-2.389-15.701-6.485s-6.485-9.728-6.485-15.701v-276.48c0-5.803 2.389-11.605 6.485-15.701s9.899-6.485 15.701-6.485h380.245c5.973 0 11.435 2.389 15.701 6.485 4.096 4.267 6.485 9.728 6.485 15.701v276.48c0 5.803-2.389 11.605-6.485 15.701zM763.563 295.595h-267.093v45.227h267.093v-45.227zM763.563 378.197h-267.093v45.227h267.093v-45.227zM763.563 462.677h-267.093v45.227h267.093v-45.227z" />
<glyph unicode="&#xe61b;" glyph-name="fill-poller" d="M865.451 162.987c4.608 3.413 10.24 5.291 15.872 5.291 5.973 0 12.117-2.048 16.896-6.827l58.368-58.539c10.581-10.581 11.947-22.869 1.024-32.085-43.008-35.84-96.085-53.931-148.992-53.931-45.227 0-90.453 13.312-129.536 39.424-8.533 5.632-16.213 12.8-24.064 19.627-3.755 3.413-8.021 5.973-11.605 9.557v0c-0.171 0.171-0.171 0.171-0.171 0.171l-11.605 10.581-148.992 135.509c-5.12 4.949-8.192 11.605-8.192 19.285s3.072 14.507 8.363 19.456l160.597 145.92c33.28 33.28 74.069 53.931 116.907 62.976 9.557 2.048 19.285 2.731 29.184 3.584 6.485 0.512 12.8 1.877 19.285 1.877 3.243 0 6.485-0.683 9.728-0.853 49.664-2.048 98.816-19.456 139.264-52.907 10.923-9.216 9.387-21.845-1.195-32.427l-58.197-58.368c-4.779-4.779-10.752-6.997-16.725-6.997-5.803 0-11.435 2.048-16.043 5.291-14.507 9.216-30.549 13.653-47.104 15.189-3.243 0.341-6.485 1.365-9.728 1.365-6.485 0-12.971-0.683-19.285-1.877-10.069-1.877-19.797-5.632-29.184-10.581-9.045-4.779-17.749-10.411-25.429-18.091-20.139-20.48-30.549-47.445-30.549-73.899 0-26.795 10.411-53.76 30.549-73.728 4.949-5.12 10.411-9.387 16.043-13.141 10.411-6.997 21.845-11.605 33.621-14.336 8.021-1.877 16.043-3.243 24.235-3.243 2.901 0 5.632 1.024 8.533 1.195 16.725 1.365 33.28 5.973 48.128 15.531zM579.584 449.536c21.504 21.504 45.568 38.571 71.339 51.371v392.533c0 11.264-9.216 20.48-20.48 20.48h-552.277c-11.264 0-20.48-9.216-20.48-20.48v-897.707c0-11.264 9.216-20.48 20.48-20.48h552.277c11.264 0 20.48 9.216 20.48 20.48v9.557c-9.899 4.949-19.456 10.581-28.843 16.725-10.069 6.656-19.285 15.189-28.501 23.381-4.437 3.925-9.557 6.997-13.824 11.264h-0.171c-0.171 0.171-0.171 0.171-0.171 0.171l-13.824 12.459-176.981 160.939c-5.973 5.803-9.728 13.653-9.728 22.869 0 9.045 3.755 17.237 9.899 23.040l190.805 173.397zM146.261 747.861c0 11.264 9.216 20.48 20.48 20.48h372.053c11.264 0 20.48-9.216 20.48-20.48v-38.741c0-11.264-9.216-20.48-20.48-20.48h-372.053c-11.264 0-20.48 9.216-20.48 20.48v38.741zM166.741 516.267c-11.264 0-20.48 9.216-20.48 20.48v38.741c0 11.264 9.216 20.48 20.48 20.48h372.053c11.264 0 20.48-9.216 20.48-20.48v-38.741c0-11.264-9.216-20.48-20.48-20.48h-372.053z" />
<glyph unicode="&#xe61c;" glyph-name="fill-service" d="M783.872 854.869c-9.728 16.725-33.451 30.379-52.736 30.379h-434.859c-19.285 0-43.008-13.653-52.736-30.379l-217.6-376.661c-9.728-16.725-9.728-44.203 0-60.928l217.429-376.661c9.728-16.725 33.451-30.379 52.736-30.379h434.859c19.285 0 43.008 13.653 52.736 30.379l217.429 376.661c9.728 16.725 9.728 44.203 0 60.928l-217.259 376.661zM513.707 269.653c-98.475 0-178.176 79.701-178.176 178.176 0 98.304 79.701 178.176 178.176 178.176s178.176-79.701 178.176-178.176c0-98.475-79.701-178.176-178.176-178.176z" />
<glyph unicode="&#xe61d;" glyph-name="fill-host" d="M786.773 913.92h-552.277c-11.264 0-20.48-9.216-20.48-20.48v-897.707c0-11.264 9.216-20.48 20.48-20.48h552.277c11.264 0 20.48 9.216 20.48 20.48v897.707c0 11.264-9.216 20.48-20.48 20.48zM500.053 178.347c-30.208 0-54.613 24.405-54.613 54.613s24.405 54.613 54.613 54.613c30.208 0 54.613-24.405 54.613-54.613s-24.405-54.613-54.613-54.613zM706.56 553.813c0-11.264-9.216-20.48-20.48-20.48h-372.053c-11.264 0-20.48 9.216-20.48 20.48v38.741c0 11.264 9.216 20.48 20.48 20.48h372.053c11.264 0 20.48-9.216 20.48-20.48v-38.741zM706.56 709.12c0-11.264-9.216-20.48-20.48-20.48h-372.053c-11.264 0-20.48 9.216-20.48 20.48v38.741c0 11.264 9.216 20.48 20.48 20.48h372.053c11.264 0 20.48-9.216 20.48-20.48v-38.741z" />
</font>
</defs>
</svg>
